<svg version="1.1" id="Layer_1" xmlns="http://www.w3.org/2000/svg" xmlns:xlink="http://www.w3.org/1999/xlink" x="0px" y="0px"
	 width="100%" viewBox="0 0 256 368" enable-background="new 0 0 256 368" xml:space="preserve">
<path fill="#000000" opacity="1.000000" stroke="none" 
	d="
M214.942780,185.118637 
	C219.539703,187.717926 223.048523,190.884033 225.379501,195.343506 
	C229.584122,203.387482 225.864639,210.994415 216.859253,212.546509 
	C209.069412,213.889069 209.476456,213.667831 205.774216,206.856598 
	C203.389847,202.469910 200.071350,198.387527 194.667862,196.879532 
	C187.953796,195.005798 184.680328,188.852417 179.937973,184.546066 
	C177.290665,182.142166 175.044006,179.297073 171.585617,177.095490 
	C172.645950,185.562759 173.502548,194.062683 174.852875,202.483444 
	C175.524170,206.669678 174.987000,209.730408 170.700699,211.336624 
	C168.932190,211.999344 168.325577,213.421631 167.996643,215.190826 
	C166.478058,223.358948 165.329742,231.623871 162.028580,239.354858 
	C161.431473,240.753235 162.178680,241.958069 162.722641,243.156311 
	C172.088837,263.788513 180.087631,284.975616 188.110992,306.146667 
	C189.216217,309.062988 191.021606,309.024475 193.163788,308.655609 
	C196.932953,308.006561 200.691422,307.234619 204.395584,306.284821 
	C208.630203,305.198975 211.630859,306.867859 213.645676,310.343475 
	C215.645782,313.793701 212.985153,315.924316 210.848999,318.015686 
	C205.797348,322.961365 200.128082,327.095795 193.405701,329.367737 
	C187.793091,331.264679 183.794952,335.843201 178.131943,337.710663 
	C173.767960,339.149780 171.554703,338.392639 169.513519,334.107025 
	C167.392319,329.653381 166.498001,324.123810 161.011063,321.772919 
	C160.022263,321.349274 159.497971,319.649078 158.934143,318.455627 
	C153.172455,306.259705 147.462967,294.039124 141.690125,281.848480 
	C141.004456,280.400543 140.648407,278.653931 140.303452,279.257629 
	C135.170700,283.456207 129.903030,287.502106 124.937912,291.890350 
	C118.094604,297.938599 112.417122,305.215179 104.752335,310.453156 
	C101.742722,312.509857 102.863708,315.843750 104.920830,318.299622 
	C106.289856,319.934082 108.223289,321.081696 109.785477,322.571594 
	C112.203484,324.877777 112.694000,327.831757 111.779701,330.872284 
	C110.833771,334.018036 108.018272,334.252289 105.270866,334.371826 
	C94.116653,334.857086 88.086563,331.381409 83.581810,321.302155 
	C81.803459,317.323120 79.191956,313.949066 76.997635,310.276611 
	C71.698616,301.408051 72.270668,299.419373 80.773643,293.692749 
	C81.698326,293.070007 83.000923,292.836182 83.459892,291.156952 
	C66.963066,287.075531 51.003498,281.368378 35.040791,275.676025 
	C28.392048,273.305054 27.184832,271.592194 27.776468,264.577759 
	C28.110817,260.613739 28.724829,256.622253 29.725403,252.776459 
	C31.619757,245.495407 31.155775,237.924393 32.865993,230.623169 
	C34.817894,222.290115 39.706615,216.358139 49.821251,220.794754 
	C51.026390,221.323364 52.689987,222.026978 53.362904,220.422516 
	C55.570740,215.158310 60.424843,211.727798 62.665447,206.454544 
	C63.664425,204.103470 62.581242,202.220291 62.435818,200.148819 
	C61.742050,190.266678 65.688599,181.235413 67.601395,171.853897 
	C71.601646,152.234238 81.558777,135.308868 92.357750,118.767273 
	C96.071205,113.079094 101.434296,110.195526 107.245193,107.568573 
	C112.391724,105.241959 117.696358,103.181969 121.663742,98.834229 
	C125.846550,94.250435 124.874596,88.882484 119.272835,86.392166 
	C110.983040,82.706848 110.335121,81.676117 110.556984,72.010368 
	C110.598152,70.216545 109.574287,68.870384 108.977226,67.339584 
	C107.092682,62.507854 104.438614,57.227829 106.860428,52.423969 
	C111.569405,43.083351 116.725708,33.545357 127.912560,30.337921 
	C133.977020,28.599150 140.185577,30.048994 146.234283,31.125134 
	C150.603470,31.902464 154.827026,32.242805 158.975372,30.414623 
	C161.687225,29.219492 163.510864,30.452005 164.892303,32.580246 
	C168.289047,37.813240 168.705246,43.318867 165.168625,48.525818 
	C163.083527,51.595718 162.826965,54.415428 163.748596,57.855320 
	C165.482559,64.327141 165.749741,71.080894 165.807373,77.681374 
	C165.892181,87.392761 163.638733,96.403954 152.485306,100.076591 
	C154.926941,103.861160 158.101257,105.895416 161.639221,107.243057 
	C168.817459,109.977318 173.536072,114.958565 176.172821,122.087624 
	C177.558884,125.835144 179.261719,129.475250 180.479782,133.273453 
	C185.312286,148.342026 193.375641,161.450562 204.853638,172.244720 
	C208.886383,176.037201 209.471970,182.217667 214.942780,185.118637 
M205.734009,193.025833 
	C208.864395,192.728394 210.604340,196.218201 213.955414,196.054962 
	C213.546143,194.536682 212.774918,193.126877 212.902405,191.803665 
	C213.087051,189.887100 212.729111,188.488754 210.924606,187.853653 
	C209.122238,187.219299 208.334808,188.888519 207.371094,189.896194 
	C206.476959,190.831146 205.784943,191.959381 204.448303,193.313980 
	C199.347549,199.036697 207.076050,198.975449 207.801575,202.329880 
	C209.286148,201.134003 210.651199,200.683548 210.367142,198.918839 
	C207.607559,197.816574 204.530960,196.962402 205.734009,193.025833 
M88.937553,180.502853 
	C92.793991,166.602814 99.322243,154.225479 109.158630,143.021210 
	C111.023186,146.056641 109.542770,147.593002 108.607094,148.977646 
	C106.287201,152.410690 105.304657,155.791122 105.882401,160.147003 
	C106.686279,166.207718 106.663017,172.396713 105.523369,178.546158 
	C104.222557,185.565155 103.292572,192.656387 102.333282,199.734116 
	C101.471962,206.088974 102.197739,207.282806 108.315155,209.094910 
	C116.156120,211.417572 124.154510,212.807281 132.386169,212.725708 
	C141.243607,212.637924 143.287704,211.160980 145.687469,202.510223 
	C149.246872,189.679138 147.143158,176.726746 146.408020,163.813629 
	C146.314423,162.169479 145.412827,160.700623 144.038803,159.559647 
	C135.902252,152.803085 130.224991,143.822021 123.014053,136.223892 
	C119.748062,132.782532 117.885086,129.108139 122.423279,124.333221 
	C111.511940,123.414825 116.877457,115.009811 115.071312,109.595062 
	C105.763344,112.501198 98.314087,116.829185 93.089523,125.185951 
	C81.666985,143.456467 73.562393,162.906891 69.089813,184.016388 
	C66.236542,197.483124 65.808907,197.392380 79.268311,199.410919 
	C79.597198,199.460236 79.923088,199.530212 80.252426,199.575760 
	C82.852798,199.935303 84.206650,198.879456 84.806473,196.232895 
	C85.945587,191.206879 87.382355,186.248322 88.937553,180.502853 
M161.988373,252.470383 
	C157.730972,243.263016 153.452805,234.065155 149.235428,224.839493 
	C148.479187,223.185196 147.907059,221.436401 147.378647,219.692245 
	C147.070312,218.674500 147.318420,217.652542 148.412598,217.181900 
	C149.568573,216.684631 150.350922,217.450165 150.885422,218.298218 
	C151.680695,219.560074 152.354172,220.903244 153.019135,222.241791 
	C154.938522,226.105453 156.827698,229.984116 159.188629,234.793777 
	C161.220078,227.229675 162.712021,220.871262 163.515686,213.589371 
	C155.703690,216.441559 151.509796,213.096268 148.931671,205.094666 
	C146.256546,216.328964 138.954071,217.570221 130.198853,217.304672 
	C123.713310,217.107925 117.440521,215.577789 111.018585,214.900528 
	C110.641624,217.290298 111.642914,218.895447 112.504990,220.440109 
	C116.476952,227.556946 120.510155,234.640503 124.599609,241.690643 
	C131.930389,254.328751 140.380783,266.285370 145.802658,280.055695 
	C150.243790,291.335205 155.815430,302.171600 160.941757,313.178436 
	C163.312836,318.269409 164.837524,318.909912 169.865601,316.443695 
	C173.437531,314.691772 176.728363,312.375946 180.219254,310.446777 
	C183.401962,308.687897 184.052261,306.605042 182.586395,303.085510 
	C175.680710,286.505127 169.038589,269.814972 161.988373,252.470383 
M195.332214,169.146698 
	C189.263550,162.200974 184.344223,154.605789 180.738083,146.028625 
	C177.311371,137.878174 174.703064,129.446686 171.399796,121.265976 
	C169.629791,116.882416 166.642761,114.025284 161.194839,112.768929 
	C163.703735,116.877518 163.458527,120.253563 160.557632,123.363045 
	C164.542145,126.596458 164.418777,130.362152 162.805328,134.406815 
	C159.722778,142.134216 157.059982,150.046326 152.759552,157.235367 
	C151.547287,159.261948 150.774017,161.271286 150.848236,163.788818 
	C151.132935,173.445038 151.333191,183.111633 151.198288,192.769241 
	C151.123398,198.131439 153.115784,202.853241 154.731201,207.720062 
	C155.340744,209.556396 156.659424,210.662338 158.905212,210.557327 
	C169.104172,210.080429 171.689133,206.926407 169.936554,196.881699 
	C169.850693,196.389557 169.768890,195.895554 169.714844,195.399216 
	C169.409088,192.590775 168.865036,190.257690 165.141525,190.109634 
	C163.091476,190.028152 161.554367,188.584671 162.479858,185.591736 
	C166.654999,187.705948 168.499054,186.471466 167.611984,182.068726 
	C164.340469,165.831253 166.535797,149.524658 166.925766,133.241516 
	C166.956161,131.972748 166.773483,130.480606 168.602356,130.024231 
	C170.790894,131.299149 170.198273,133.505447 170.219238,135.386444 
	C170.313889,143.882309 170.319168,152.379608 170.289825,160.876144 
	C170.280441,163.590393 170.247070,166.531906 172.000977,168.537994 
	C178.131485,175.550049 184.000015,182.816071 190.821899,189.200226 
	C191.990143,190.293518 193.364731,191.067261 194.778000,189.691559 
	C198.061584,186.495285 201.261429,183.212967 204.596085,179.864243 
	C201.451080,176.220810 198.627411,172.949615 195.332214,169.146698 
M100.052895,235.619614 
	C102.418770,237.558640 102.290054,240.270004 102.362602,242.943817 
	C102.613869,252.204941 101.551018,261.404205 100.702179,272.050354 
	C107.616165,263.879822 114.855957,257.763702 119.335297,249.245361 
	C120.897827,246.273880 120.635361,243.840668 118.993256,240.895233 
	C114.632889,233.074081 109.004906,225.887512 106.449173,217.141022 
	C105.637985,214.364899 104.248955,212.486557 101.550903,211.378021 
	C97.327141,209.642624 96.199768,206.284119 96.991035,202.003586 
	C97.836136,197.431763 98.791557,192.867386 99.344269,188.257263 
	C100.355507,179.822479 103.056862,171.498596 101.422195,162.090805 
	C96.570282,169.459061 94.512306,177.136887 92.314369,184.749069 
	C90.749985,190.167023 90.057098,196.006927 87.551773,200.934814 
	C85.067772,205.820786 82.182220,209.933212 85.773598,215.375061 
	C86.306084,216.181931 85.965012,217.644058 85.851921,218.785583 
	C85.055260,226.826843 87.256584,230.254852 94.929070,233.012558 
	C96.481880,233.570679 97.932655,234.412689 100.052895,235.619614 
M141.617935,106.030640 
	C144.340088,105.883278 144.806351,103.656219 145.978912,101.696579 
	C141.022278,99.300819 134.671646,99.329491 132.985214,92.705582 
	C138.304214,94.471298 143.376907,96.336876 149.003021,95.868149 
	C155.858002,95.297028 160.063721,91.870277 160.583939,85.151581 
	C161.044815,79.199661 160.781311,73.188805 160.764145,67.204178 
	C160.757690,64.957123 160.029190,63.211590 157.238098,63.590126 
	C155.727753,63.794960 153.974060,64.150055 153.736526,62.018215 
	C153.528885,60.154617 155.201614,59.623745 156.636185,59.131748 
	C157.557281,58.815853 158.644211,58.873623 159.465027,57.571846 
	C158.643723,55.261066 159.403732,50.509003 155.186188,51.671516 
	C147.613815,53.758751 140.415802,52.891895 133.025208,51.601616 
	C131.113068,51.267784 128.312714,52.397305 128.859833,54.039043 
	C130.940506,60.282505 125.901649,65.073296 126.128265,70.857430 
	C126.258057,74.170074 124.686653,75.640244 121.444901,73.423042 
	C119.814926,72.308228 118.232704,70.710693 116.115959,72.339508 
	C114.850754,73.313087 114.279335,74.788940 114.615417,76.343224 
	C115.121445,78.683517 116.128868,81.473557 118.650887,81.491402 
	C127.122749,81.551361 128.060959,88.357910 128.842361,93.771309 
	C129.493332,98.281036 131.450424,100.654549 134.796173,102.657150 
	C136.787048,103.848801 138.933121,104.781158 141.617935,106.030640 
M37.867188,230.357361 
	C34.976513,244.209091 34.681267,242.520401 46.884155,247.949356 
	C47.949512,248.423325 49.010567,248.917130 50.106754,249.309021 
	C51.407890,249.774155 52.519199,249.648544 53.825493,248.809128 
	C58.670273,245.695938 63.134407,247.005600 65.255081,252.201019 
	C65.935379,253.867691 66.861893,254.475830 68.478821,254.766953 
	C73.084473,255.596191 77.703667,255.956772 82.389381,255.949814 
	C85.640572,255.944992 87.063713,254.527145 87.901718,251.468063 
	C89.278000,246.444046 89.428902,240.899750 94.294930,236.570450 
	C90.678772,236.368286 88.123970,233.806519 85.378914,235.063629 
	C82.055878,236.585403 79.855789,235.250275 77.086693,233.794342 
	C71.925919,231.080978 66.195930,229.204788 60.493748,228.861465 
	C57.134567,228.659195 54.725235,228.337219 52.042099,226.172379 
	C45.700283,221.055527 40.034546,222.618683 37.867188,230.357361 
M35.804535,248.053894 
	C33.076042,254.063797 32.857021,260.575043 32.106636,266.967010 
	C31.830215,269.321686 33.467297,270.529694 35.480167,271.336060 
	C49.405731,276.914612 63.958691,280.562897 78.177528,285.238159 
	C80.009361,285.840454 81.543427,285.721771 81.939499,283.432007 
	C83.227852,275.983826 84.477226,268.528870 85.878403,260.270294 
	C78.703835,261.047119 72.501968,260.099518 66.352226,258.779083 
	C64.519890,258.385651 63.761204,259.554626 62.643169,260.613464 
	C59.701817,263.399017 53.680534,262.038391 52.998840,258.115875 
	C52.380184,254.556152 50.127914,253.538666 47.530758,252.443329 
	C43.853859,250.892578 40.141617,249.425613 35.804535,248.053894 
M123.145081,251.481308 
	C119.105576,260.545502 111.449005,266.678070 104.971542,273.747253 
	C102.366371,276.590393 99.610779,279.137665 99.221634,283.318726 
	C98.994713,285.756836 96.989326,286.831451 94.970001,287.789337 
	C93.384315,288.541534 91.326569,288.592102 90.365021,290.854340 
	C92.149437,296.235413 95.617607,300.543945 100.241257,304.021606 
	C102.040375,305.374817 103.704582,305.677338 105.563568,303.964233 
	C115.834557,294.499084 125.725861,284.654572 135.285049,274.474091 
	C136.695694,272.971771 136.993805,271.316956 135.891479,269.475586 
	C132.307388,263.488525 128.754898,257.482452 125.146675,251.510056 
	C124.785416,250.912064 124.327240,249.810394 123.145081,251.481308 
M116.563919,67.693176 
	C118.178917,67.432076 119.794319,68.650497 121.385696,67.758537 
	C123.076012,63.341648 125.767075,59.580971 124.844849,54.154003 
	C124.235840,50.570217 128.296188,48.315636 132.058502,48.001503 
	C134.504745,47.797253 137.017929,48.361103 139.498474,48.607590 
	C147.243362,49.377193 154.868591,49.711254 160.304214,42.837532 
	C162.253708,43.898663 160.486542,45.677280 161.537033,46.862808 
	C163.338196,44.305965 162.929398,41.579124 162.693893,38.968227 
	C162.384659,35.539608 160.801056,33.807434 157.007172,35.153175 
	C153.315506,36.462658 149.559143,36.198437 145.685791,35.498917 
	C141.125748,34.675373 136.512665,33.723461 131.801239,34.265331 
	C125.684753,34.968796 120.290581,36.762169 118.471596,43.549969 
	C117.964287,45.443054 116.480774,45.990795 115.101624,46.917732 
	C108.451981,51.386986 108.911552,63.909931 116.563919,67.693176 
M178.662018,328.028229 
	C188.598328,323.235352 198.942734,319.098877 206.767471,310.832062 
	C202.541000,311.034424 198.491592,311.366577 195.183716,314.270081 
	C192.669388,316.477081 189.378601,316.811249 186.816483,315.231171 
	C184.041977,313.520172 182.220993,314.468109 180.068573,315.793945 
	C178.373978,316.837769 176.665405,317.859467 174.950073,318.868988 
	C168.257782,322.807526 168.124512,323.522797 172.923920,330.111359 
	C174.841812,330.205109 176.331207,329.001984 178.662018,328.028229 
M88.922028,298.623566 
	C87.752533,297.287659 87.360435,294.425659 84.523560,296.334808 
	C82.278885,297.845459 80.733337,299.513855 82.469353,302.485199 
	C85.493362,307.660980 87.678009,313.245117 90.153854,318.691833 
	C93.170860,325.329102 99.403748,328.365295 107.749084,327.504028 
	C104.839096,323.342926 101.540680,320.291321 96.707939,319.854980 
	C96.026909,317.924500 98.019661,317.856537 98.183792,316.693542 
	C97.162560,315.941925 95.434853,316.917877 94.634056,314.935120 
	C98.576302,313.127228 91.743248,309.059631 96.326813,307.454834 
	C93.822762,304.505371 91.568375,301.849976 88.922028,298.623566 
M124.342812,129.508438 
	C128.547379,137.635941 135.279724,143.749405 141.448425,150.432388 
	C135.052261,135.261002 128.656082,120.089622 121.926086,104.126427 
	C119.192368,109.002129 119.163391,113.390358 119.463799,117.815117 
	C119.539902,118.935982 120.517952,119.306931 121.481499,119.744209 
	C127.995239,122.700211 127.983223,122.726685 124.342812,129.508438 
M66.264015,218.563019 
	C70.039429,217.976669 71.456055,221.516083 74.104721,223.274734 
	C76.706833,220.593567 75.076591,214.014145 81.468750,215.670578 
	C81.304810,208.047333 75.341354,208.499817 70.683067,207.008530 
	C68.106094,206.183533 66.632996,206.842896 65.424057,209.109375 
	C64.228783,211.350235 63.519802,213.710449 63.342342,216.202057 
	C63.236168,217.692810 63.204140,219.459335 66.264015,218.563019 
M86.967796,280.971863 
	C86.903435,282.362671 85.666687,283.809418 87.128365,285.128937 
	C94.545311,284.480591 95.432388,283.572754 95.832779,276.527283 
	C95.964745,274.205231 96.324280,271.896545 96.473488,269.574921 
	C97.046387,260.660858 98.278053,251.777893 98.045158,242.851364 
	C94.568947,241.377838 94.043602,243.892990 93.583122,245.906769 
	C90.989983,257.246979 88.715157,268.652222 86.967796,280.971863 
M155.972244,140.421509 
	C156.184418,139.970551 156.456665,139.537796 156.599548,139.065857 
	C158.106232,134.089050 162.107986,129.078735 156.110916,124.247192 
	C155.063019,123.402946 155.533661,121.835541 156.333984,120.580093 
	C159.168152,116.134254 158.573822,113.112869 154.051865,109.080788 
	C154.547119,121.185318 154.398270,133.135620 154.033951,145.150879 
	C154.570236,143.790604 155.106522,142.430328 155.972244,140.421509 
M147.656891,148.279678 
	C149.354126,139.521469 146.929581,131.373077 144.208618,122.705559 
	C141.047943,130.386063 141.845978,143.120087 145.531601,149.087234 
	C146.408890,150.507584 147.048660,150.895767 147.656891,148.279678 
M130.325073,104.428680 
	C129.088577,104.041145 128.127609,102.251442 126.425140,103.658409 
	C126.970123,106.546165 128.498520,108.877205 130.244476,111.065956 
	C134.035141,115.818016 135.674255,115.531715 138.226456,109.654671 
	C136.219025,107.421661 133.266586,106.545586 130.325073,104.428680 
M138.258438,119.478775 
	C136.412689,119.397156 134.566940,119.315536 132.316147,119.216003 
	C134.133789,123.000534 135.708267,126.278748 137.796799,130.627304 
	C139.106598,126.215988 139.004822,123.143921 138.258438,119.478775 
M149.312637,106.321426 
	C145.493225,108.511711 145.491333,109.105217 149.339279,111.568817 
	C150.012619,110.008575 149.752243,108.416725 149.312637,106.321426 
z"/>
<path fill="#000000" opacity="1.000000" stroke="none" 
	d="
M127.811874,191.217972 
	C122.054131,192.838196 116.943237,191.202225 111.884201,189.720795 
	C109.643021,189.064499 108.360992,187.376602 109.723625,184.486069 
	C115.872581,188.026703 122.313293,188.371887 128.921249,187.330124 
	C130.436951,188.979492 129.394775,190.032166 127.811874,191.217972 
z"/>
<path fill="#000000" opacity="1.000000" stroke="none" 
	d="
M106.798012,128.623199 
	C106.438644,124.111542 103.680595,121.063110 101.553841,117.545563 
	C106.753410,117.988739 109.716362,123.444466 109.045441,130.798950 
	C107.284004,131.435532 107.293785,129.928467 106.798012,128.623199 
z"/>
<path fill="#000000" opacity="1.000000" stroke="none" 
	d="
M152.526489,75.674774 
	C152.550369,72.305679 149.040421,70.078438 150.320862,66.561935 
	C154.585114,68.329010 158.308365,74.506233 156.774551,77.466232 
	C155.123398,80.652725 152.554245,81.893311 149.211655,79.652115 
	C149.259674,77.279594 151.895737,77.635536 152.526489,75.674774 
z"/>
<path fill="#000000" opacity="1.000000" stroke="none" 
	d="
M143.462585,84.457893 
	C147.542999,84.742516 151.245926,85.064873 156.383026,85.512070 
	C152.996811,89.482529 149.690125,89.748116 146.255569,88.660149 
	C144.561249,88.123428 141.105087,88.148689 143.462585,84.457893 
z"/>
<path fill="#000000" opacity="1.000000" stroke="none" 
	d="
M134.115204,64.995331 
	C133.485458,61.294750 136.172653,60.707653 138.523483,60.223351 
	C140.832275,59.747711 143.078949,60.140648 144.044250,63.682514 
	C140.604675,64.226387 137.478561,64.720688 134.115204,64.995331 
z"/>
<path fill="#000000" opacity="1.000000" stroke="none" 
	d="
M117.214584,77.870087 
	C115.722717,76.352058 114.817245,74.884224 116.595230,73.477173 
	C118.108810,72.279373 119.383972,73.423653 120.425896,74.505898 
	C121.452652,75.572403 122.681686,76.883698 121.678146,78.376045 
	C120.335999,80.371910 118.834015,78.928879 117.214584,77.870087 
z"/>
<path fill="#000000" opacity="1.000000" stroke="none" 
	d="
M157.333786,71.262863 
	C155.205017,68.933350 155.306061,67.006683 157.899399,64.950333 
	C159.918762,67.394241 162.560333,69.432892 157.333786,71.262863 
z"/>
<path fill="#000000" opacity="1.000000" stroke="none" 
	d="
M138.794357,67.710991 
	C142.059738,66.568680 142.348709,68.469101 142.164246,70.632614 
	C142.055801,71.904549 141.201172,72.952728 139.875534,72.443756 
	C137.741501,71.624397 137.706635,69.872978 138.794357,67.710991 
z"/>
<path fill="#000000" opacity="1.000000" stroke="none" 
	d="
M132.934418,34.951317 
	C134.588974,35.024639 136.033142,34.593300 137.335815,36.921360 
	C132.753983,37.151627 128.795044,38.672520 123.881035,40.336735 
	C125.971138,35.596989 129.561172,35.833275 132.934418,34.951317 
z"/>
<path fill="#000000" opacity="1.000000" stroke="none" 
	d="
M96.842224,250.830994 
	C95.364487,261.313995 93.924736,271.371307 92.484978,281.428619 
	C91.777115,281.326416 91.069260,281.224213 90.361397,281.122009 
	C89.687843,268.601990 93.420654,256.597870 95.399345,244.342957 
	C97.452271,246.176086 96.770447,248.364731 96.842224,250.830994 
z"/>
</svg>