<svg version="1.1" id="Layer_1" xmlns="http://www.w3.org/2000/svg" xmlns:xlink="http://www.w3.org/1999/xlink" x="0px" y="0px"
	 width="100%" viewBox="0 0 304 288" enable-background="new 0 0 304 288" xml:space="preserve">
<path fill="#000000" opacity="1.000000" stroke="none" 
	d="
M223.023132,139.063721 
	C220.252609,154.286530 210.853073,163.831223 197.766388,170.761780 
	C201.195084,174.666733 204.628494,178.231216 207.668076,182.104752 
	C216.240662,193.029373 222.631943,204.898331 223.217422,219.223709 
	C223.556519,227.520050 221.925125,234.829407 213.721786,239.537552 
	C217.505234,242.680496 221.873199,242.988144 225.893951,244.167801 
	C227.942505,244.768829 230.471344,244.915787 231.081482,247.428528 
	C231.756912,250.210251 229.494293,251.731903 227.604935,252.967911 
	C219.616272,258.194153 210.793686,259.358978 201.781128,256.748291 
	C197.185196,255.417023 195.704453,257.006409 195.150101,261.009308 
	C194.921768,262.657990 194.625092,264.299744 194.464722,265.954834 
	C194.145447,269.250153 192.211853,271.284454 189.136490,271.694855 
	C182.533691,272.576019 175.894608,273.036682 169.322418,271.206299 
	C166.048065,270.294403 164.374008,268.169159 163.731323,264.900848 
	C163.154617,261.968018 162.045990,259.126831 161.619797,256.180450 
	C160.951630,251.561188 158.565475,250.356827 154.095871,250.876221 
	C150.976059,251.238754 149.003006,251.918045 148.800476,255.314102 
	C148.761368,255.969803 148.499329,256.609344 148.378662,257.263458 
	C146.103745,269.597290 144.373627,271.063477 131.758621,271.277924 
	C126.922218,271.360199 122.090088,271.403595 117.482048,269.548828 
	C112.717651,267.631104 111.872459,265.591858 114.514053,261.241394 
	C115.684525,259.313660 115.971298,257.640259 114.997971,255.644348 
	C112.355774,250.226288 111.153435,244.320496 109.252609,238.227646 
	C105.986305,238.962708 102.793205,236.883224 99.333824,238.358490 
	C97.859779,238.987091 96.562469,237.528488 95.514854,236.448303 
	C91.025879,231.819916 89.412766,226.176956 90.282410,219.929886 
	C92.670235,202.777115 99.580345,187.755356 111.804131,175.319138 
	C112.373825,174.739532 112.834778,174.053040 113.515282,173.206116 
	C111.495262,170.460297 108.331451,169.599243 105.760635,167.927292 
	C96.026878,161.596939 88.662796,153.629440 87.311195,141.461685 
	C87.274452,141.130890 87.088669,140.766068 87.176262,140.479416 
	C89.926727,131.478882 84.231972,130.101562 77.323273,127.908531 
	C65.209229,124.063164 59.204197,114.007538 55.418217,102.425026 
	C52.722931,94.179298 51.992432,85.458183 49.004711,77.276360 
	C47.210190,72.362099 44.999126,67.823662 41.480942,63.885090 
	C39.285366,61.427170 36.760994,58.678154 38.517479,55.010689 
	C40.165337,51.570034 43.770393,50.862648 47.071682,50.857903 
	C59.242908,50.840424 70.868309,53.576920 81.701797,59.130547 
	C92.449509,64.640205 102.042328,71.770691 110.310608,81.337440 
	C115.362885,77.904396 120.417801,74.780640 125.842400,72.338020 
	C127.212608,71.721046 127.589500,70.699150 127.452682,69.104355 
	C126.947151,63.211529 128.931595,61.122322 134.953415,60.988682 
	C136.581406,60.952549 138.214981,61.168747 139.963928,61.276382 
	C140.070602,60.614178 140.306625,60.113113 140.191528,59.713085 
	C139.144409,56.074024 138.232330,52.235756 141.879486,49.681725 
	C145.358414,47.245514 149.046539,49.013283 152.231186,50.780514 
	C155.255829,52.458965 157.934494,54.760876 160.759003,56.784138 
	C165.323364,52.802948 167.860901,52.593166 170.220993,58.217377 
	C173.484695,65.994926 179.196411,69.210472 186.547073,71.710136 
	C193.311264,74.010345 199.228149,78.231125 204.938293,83.350952 
	C212.834396,74.663727 221.822083,67.667747 232.296417,62.644138 
	C244.935913,56.582092 258.202240,53.174953 272.225800,52.799171 
	C273.553345,52.763599 274.902405,52.800911 276.213318,52.994797 
	C284.236938,54.181496 286.622223,58.457012 281.945862,65.042480 
	C274.240845,75.892998 270.206757,87.973694 267.160156,100.724289 
	C264.602722,111.427505 259.594238,121.058922 250.185303,127.592270 
	C243.176727,132.458862 235.352554,135.216537 226.757812,134.975403 
	C223.725967,134.890350 222.890762,136.030701 223.023132,139.063721 
M136.678513,242.770859 
	C147.655533,247.781754 159.091156,246.125000 170.518036,244.072144 
	C170.361893,248.686981 163.861572,246.998611 165.055130,251.546326 
	C165.898895,254.761292 167.076370,257.888550 168.100861,261.056274 
	C168.203278,261.372925 168.269623,261.701050 168.366837,262.019562 
	C169.992508,267.345795 171.279953,267.709778 175.371185,263.992767 
	C177.150085,264.702698 177.974396,267.176392 180.645172,266.712738 
	C181.991974,259.958344 186.163727,264.396484 190.541321,265.055847 
	C189.290710,253.070160 199.970612,242.646103 193.086060,230.325119 
	C194.971130,218.016739 190.518936,207.114182 185.347900,196.172592 
	C191.524277,199.115402 193.420258,204.964417 195.945770,210.307419 
	C198.625977,215.977722 198.723114,222.015533 197.201599,229.227600 
	C205.284836,224.232315 204.138260,231.298813 205.760559,234.037003 
	C209.100342,234.753708 209.989380,225.197754 214.230087,232.660812 
	C218.255096,228.352188 219.306366,223.273941 218.475571,217.774002 
	C216.156677,202.422699 208.621750,189.705521 198.436432,178.308151 
	C194.909653,174.361679 191.185806,172.099503 185.846710,174.789551 
	C184.879883,175.276672 183.558853,175.119217 182.398605,175.147842 
	C181.190140,175.177658 179.903168,174.975861 179.650055,173.555191 
	C179.404465,172.176849 180.422043,171.399750 181.613571,171.053818 
	C183.529922,170.497437 185.500107,170.127060 187.418137,169.575729 
	C201.794418,165.443375 217.021545,153.144547 218.308899,136.553513 
	C218.510300,133.957748 216.739471,131.362549 218.504395,128.618881 
	C219.436996,128.687012 220.431976,128.623260 221.356781,128.848099 
	C232.041412,131.445755 241.329681,128.948898 249.639084,121.742516 
	C257.932159,114.550270 261.365601,104.977402 263.715210,94.783211 
	C266.358063,83.316750 270.314545,72.440117 277.470551,62.921261 
	C278.321625,61.789143 279.528412,60.598000 278.187622,58.219448 
	C248.229904,56.779182 223.758484,68.549019 203.957230,91.056915 
	C197.686844,82.105476 189.705566,76.705025 179.926331,74.093102 
	C174.398666,72.616722 170.214294,70.081581 168.686813,64.155029 
	C168.307312,62.682617 167.743958,60.935520 165.856766,60.322388 
	C164.321198,61.872845 165.383209,64.742004 162.479172,66.059296 
	C157.098495,61.663368 153.353546,54.322105 144.827759,53.560280 
	C142.878067,59.664906 148.924301,62.714542 149.993622,67.906334 
	C143.936722,70.207588 138.664871,62.415283 132.538101,66.628212 
	C134.350388,71.647987 140.376526,71.530266 142.948288,75.516296 
	C141.478729,76.965523 139.867081,76.757286 138.566406,76.228302 
	C132.578491,73.792915 127.511322,76.201805 122.480652,79.004814 
	C116.587547,82.288368 111.467148,86.454231 107.422768,91.920174 
	C106.235527,93.524712 105.304680,95.742195 102.316917,95.511063 
	C101.887871,92.238266 103.792809,89.979088 105.249550,87.717545 
	C106.687050,85.485870 106.443939,84.071793 104.625542,82.110146 
	C91.681076,68.145935 75.697792,59.816643 57.098835,56.550755 
	C52.729218,55.783470 48.028694,54.712944 43.680115,56.606815 
	C43.285633,59.247078 44.825214,60.493015 45.912323,61.885628 
	C50.610966,67.904724 53.569485,74.723373 55.369186,82.088104 
	C56.711903,87.582779 57.902630,93.117775 59.377705,98.576263 
	C62.782509,111.175697 69.183121,121.060692 82.763718,124.724663 
	C86.989578,125.864777 89.408585,125.218178 90.508781,120.714767 
	C91.615707,116.183830 93.516975,111.965118 96.630280,107.867722 
	C97.718361,110.783562 97.114410,113.014153 96.559189,115.282471 
	C95.214493,120.776085 93.764008,126.253311 92.690895,131.801880 
	C90.504692,143.105743 93.862267,152.500458 102.894203,159.773727 
	C109.615189,165.186020 117.124367,168.939224 125.540588,170.980545 
	C127.932236,171.560654 130.870972,171.669983 132.185684,174.824112 
	C129.668350,176.958130 127.083755,176.028091 124.519157,175.598892 
	C122.079178,175.190521 119.437576,174.344559 117.375603,176.378922 
	C103.532692,190.036484 95.180313,206.200974 95.417053,226.043854 
	C95.453140,229.068649 96.429115,232.258255 100.400932,233.519501 
	C103.002304,229.002014 94.452446,225.160385 99.553619,220.796616 
	C101.924164,221.555222 101.279640,224.696167 103.920143,225.173004 
	C105.414169,222.546783 106.680374,219.884003 107.028519,216.633499 
	C108.022057,207.356949 109.385292,198.115051 112.947060,189.394073 
	C113.810051,187.281052 114.352791,184.585922 117.522774,184.404572 
	C118.703300,186.892105 117.431824,188.893188 116.816391,190.869965 
	C114.686172,197.712234 112.863953,204.580383 112.239296,211.773209 
	C110.954018,226.573029 113.766357,240.592087 119.655975,254.114120 
	C120.837395,256.826538 122.123039,259.626953 119.653069,262.664337 
	C123.921432,261.232483 123.921432,261.232483 124.833961,264.595581 
	C126.531029,264.591766 127.442505,262.396454 129.354691,262.958344 
	C130.475128,263.492798 129.525696,265.179108 131.074417,265.682831 
	C134.176941,266.691956 141.599487,264.913330 142.519958,262.703796 
	C145.589691,255.335175 144.069565,250.331955 138.314438,248.061508 
	C134.944214,246.731934 130.976059,245.964691 129.568665,241.632797 
	C132.197906,240.183075 133.971329,241.989304 136.678513,242.770859 
M199.590576,243.064346 
	C199.954300,245.807068 196.851471,249.816940 200.311264,251.118210 
	C208.045731,254.027176 216.059235,253.960434 223.778641,249.211929 
	C214.757965,247.801697 208.447159,241.245285 200.558456,237.472992 
	C200.258469,239.378448 200.027710,240.844193 199.590576,243.064346 
z"/>
<path fill="#000000" opacity="1.000000" stroke="none" 
	d="
M252.414139,66.224319 
	C258.715088,63.993370 264.470184,60.826290 271.542267,62.995487 
	C250.874115,68.679726 235.005295,80.409760 223.856995,99.073387 
	C225.910370,99.273689 227.784119,99.391777 229.636963,99.656265 
	C231.330688,99.898033 232.926208,100.500122 233.611847,102.248322 
	C234.384811,104.219200 233.069839,105.430443 231.680161,106.373299 
	C229.733414,107.694122 229.558807,109.190666 229.972229,111.478119 
	C230.793228,116.020767 228.385712,118.811981 223.244095,119.496521 
	C225.879272,116.076469 226.719345,112.981522 224.422897,109.035133 
	C222.748444,106.157639 226.971115,105.532204 228.558380,103.614120 
	C223.490326,102.439896 220.019150,105.102562 216.763153,107.647675 
	C214.165741,105.863594 215.352753,104.052177 216.169128,102.579536 
	C224.724243,87.147354 235.768723,74.152054 252.414139,66.224319 
z"/>
<path fill="#000000" opacity="1.000000" stroke="none" 
	d="
M51.650024,60.908180 
	C53.265858,59.263107 54.921597,59.897793 56.518982,60.228279 
	C66.110153,62.212589 74.347206,66.859200 81.019905,73.876472 
	C88.058762,81.278816 93.747383,89.696251 97.327644,99.385620 
	C98.012474,101.238983 99.037643,103.052856 97.797050,105.287766 
	C93.876785,106.289848 92.466599,100.197449 87.950470,101.799065 
	C89.541290,104.514961 91.097466,107.112732 88.288681,110.129478 
	C86.469696,112.083153 89.893883,112.925362 90.161697,114.609024 
	C85.689072,115.904091 83.115051,113.307709 84.329971,108.621262 
	C84.698517,107.199654 85.347565,106.151237 84.473595,104.476646 
	C81.727783,99.215477 82.962471,97.566689 89.147888,97.633430 
	C89.611786,97.638435 90.077438,97.480545 91.070068,97.305092 
	C83.909439,81.171143 73.027245,69.375153 56.316227,63.485676 
	C54.647518,62.897575 52.610710,63.123211 51.650024,60.908180 
z"/>
<path fill="#000000" opacity="1.000000" stroke="none" 
	d="
M132.887085,152.491699 
	C127.990891,150.202850 123.753807,147.826431 123.501877,142.123779 
	C124.955177,141.302795 125.690559,141.595718 126.295082,142.250992 
	C137.307785,154.187927 155.967850,149.991302 164.964157,142.298355 
	C165.723221,141.649261 166.436798,140.945496 167.212372,140.317612 
	C168.027664,139.657608 168.985382,139.248749 169.966110,139.846634 
	C171.180344,140.586884 171.102203,141.778732 170.723587,142.949966 
	C169.907059,145.475906 169.125076,148.016418 168.201004,150.503433 
	C166.336533,155.521408 164.239731,156.394562 159.660461,153.519531 
	C157.536682,152.186157 155.799301,153.039932 153.952942,153.412582 
	C146.976227,154.820679 140.081741,154.910416 132.887085,152.491699 
z"/>
<path fill="#000000" opacity="1.000000" stroke="none" 
	d="
M180.798767,118.849998 
	C184.427261,121.919212 185.902466,125.318024 184.179062,129.617203 
	C182.534805,133.718948 178.861176,135.908752 175.266556,134.964844 
	C171.382187,133.944839 169.037170,129.435837 169.843918,124.538162 
	C170.545166,120.280968 173.603577,117.588661 177.640076,117.821381 
	C178.590958,117.876213 179.516922,118.362892 180.798767,118.849998 
z"/>
<path fill="#000000" opacity="1.000000" stroke="none" 
	d="
M113.113434,132.725983 
	C110.182274,129.098541 109.968605,125.455299 111.609367,121.642105 
	C112.841278,118.779099 115.087372,116.975220 118.193268,117.154999 
	C121.374458,117.339134 123.309219,119.692200 124.068275,122.556709 
	C125.152977,126.650085 124.586357,130.575058 121.062088,133.461609 
	C118.444534,135.605530 115.828842,135.134125 113.113434,132.725983 
z"/>
<path fill="#000000" opacity="1.000000" stroke="none" 
	d="
M187.097641,135.922211 
	C191.380463,133.765274 195.385635,133.408142 199.467484,135.248642 
	C201.247620,136.051315 202.539017,137.351105 202.660065,139.371429 
	C202.786072,141.474289 201.446259,142.705368 199.682495,143.553391 
	C196.094528,145.278442 192.379868,145.803085 188.537323,144.580948 
	C183.307465,142.917557 182.690094,139.916519 187.097641,135.922211 
M187.959625,139.730164 
	C191.254379,143.620132 195.514771,143.507309 199.151047,139.239090 
	C195.487778,136.589066 191.924820,136.783478 187.959625,139.730164 
z"/>
<path fill="#000000" opacity="1.000000" stroke="none" 
	d="
M133.507568,195.895111 
	C131.983704,191.075180 134.209930,187.326706 139.665314,184.811020 
	C140.955933,186.042999 139.702164,186.847656 139.166824,187.772583 
	C138.673172,188.625427 138.190369,189.484543 137.460434,190.766586 
	C143.877457,192.050964 139.078583,198.465530 142.344604,201.161087 
	C144.453827,201.715744 145.367966,199.471710 147.907181,199.675125 
	C147.600601,202.767563 145.626205,204.310242 143.116379,204.901138 
	C140.199142,205.587952 138.799561,203.249207 138.194870,200.993958 
	C137.518158,198.470001 137.209412,196.040054 133.507568,195.895111 
z"/>
<path fill="#000000" opacity="1.000000" stroke="none" 
	d="
M112.127350,139.846466 
	C108.818321,144.376480 100.830223,144.934921 97.306847,141.262238 
	C95.315781,139.186798 95.407837,137.152252 97.570076,135.281799 
	C101.892075,131.543030 110.066673,133.890045 112.127350,139.846466 
M105.308250,141.505478 
	C106.767906,141.271744 108.290779,141.118698 108.408966,139.153336 
	C103.994156,135.354218 102.202759,135.337555 99.506493,139.074203 
	C100.583786,141.174927 102.851448,140.759155 105.308250,141.505478 
z"/>
<path fill="#000000" opacity="1.000000" stroke="none" 
	d="
M177.416901,104.438217 
	C180.208221,104.361824 182.247238,105.106178 180.091812,107.742264 
	C177.434418,110.992287 173.811356,113.156288 169.734497,114.377441 
	C168.391434,114.779739 166.988297,114.718185 166.224503,113.314598 
	C165.373993,111.751671 166.435440,110.799469 167.651947,110.112007 
	C170.827682,108.317390 173.503815,105.679871 177.416901,104.438217 
z"/>
<path fill="#000000" opacity="1.000000" stroke="none" 
	d="
M113.718994,109.355515 
	C111.720146,106.579353 112.200172,104.699226 115.420273,105.071091 
	C119.058769,105.491287 122.365196,107.225212 125.063034,109.824898 
	C126.231430,110.950768 126.711891,112.400116 125.675461,113.849045 
	C124.732849,115.166824 123.391304,114.915955 122.090233,114.350815 
	C119.195999,113.093697 116.424797,111.626022 113.718994,109.355515 
z"/>
<path fill="#000000" opacity="1.000000" stroke="none" 
	d="
M139.198578,137.570160 
	C138.977966,138.002823 138.885101,138.195618 138.749695,138.232574 
	C135.647858,139.079010 134.182632,137.167664 133.239044,134.737000 
	C132.723953,133.410172 133.567413,132.334030 134.924423,132.359650 
	C138.012360,132.417999 139.101639,134.496933 139.198578,137.570160 
z"/>
<path fill="#000000" opacity="1.000000" stroke="none" 
	d="
M72.651871,85.168915 
	C76.341827,83.420227 80.712486,85.960678 82.072227,90.661087 
	C78.083000,90.261230 75.717522,87.275032 72.651871,85.168915 
z"/>
<path fill="#000000" opacity="1.000000" stroke="none" 
	d="
M149.854965,133.182373 
	C150.886719,136.246902 148.607315,139.267685 145.992249,138.842194 
	C144.146973,138.541931 144.043411,137.231262 144.706253,135.904541 
	C145.659805,133.995895 147.364670,133.112610 149.854965,133.182373 
z"/>
</svg>