<svg version="1.1" id="Layer_1" xmlns="http://www.w3.org/2000/svg" xmlns:xlink="http://www.w3.org/1999/xlink" x="0px" y="0px"
	 width="100%" viewBox="0 0 288 384" enable-background="new 0 0 288 384" xml:space="preserve">
<path fill="#000000" opacity="1.000000" stroke="none" 
	d="
M68.672760,159.692108 
	C79.540665,148.774277 90.400536,138.467941 105.004395,133.264709 
	C108.046700,132.180756 108.564941,131.350296 112.684418,125.584053 
	C109.021721,122.028511 104.925888,118.668732 102.048897,114.206474 
	C101.193306,112.879440 99.259544,113.482658 97.798058,113.286034 
	C90.970879,112.367538 87.054962,106.334175 89.445145,99.851166 
	C90.306290,97.515457 89.418800,96.091331 88.462807,94.339806 
	C85.483192,88.880722 82.395920,83.219002 84.397499,76.831032 
	C86.660835,69.607689 91.028961,63.133808 95.567482,57.380650 
	C101.585022,49.752678 110.968872,48.681057 120.307968,50.098598 
	C124.881439,50.792778 128.697388,50.371323 132.097321,46.707870 
	C135.237411,43.324417 143.804047,44.852310 147.892532,49.089886 
	C153.306000,54.700764 153.929474,63.462589 149.043808,69.583435 
	C147.469910,71.555222 147.208878,73.285263 147.919830,75.528984 
	C150.040695,82.222214 150.972443,89.171913 151.853851,96.091385 
	C153.350723,107.842415 151.193558,118.402763 140.497131,125.642975 
	C142.017563,128.806824 144.134872,130.594513 147.359085,131.120712 
	C158.532776,132.944290 167.259674,139.174362 175.333908,146.634369 
	C180.677994,151.571884 185.928528,156.649185 192.483459,160.767517 
	C197.296417,153.509430 199.492172,145.353500 203.515091,138.119965 
	C203.590332,137.984680 203.638336,137.754715 203.575211,137.633331 
	C197.436462,125.828079 209.136108,116.895126 208.722733,105.957825 
	C208.619812,103.235077 210.116165,100.666740 213.581741,100.751671 
	C217.036667,100.836334 217.646988,103.720779 217.584564,106.091446 
	C217.416183,112.484406 221.090332,115.598000 226.079926,118.626480 
	C233.511993,123.137444 234.006943,126.439064 229.996552,134.446915 
	C228.580215,137.275009 227.370239,140.217896 225.128922,142.551071 
	C224.556412,143.147079 224.088898,143.761826 224.152985,144.720490 
	C225.237900,160.947327 218.540131,174.287201 208.040298,185.841797 
	C203.267532,191.094040 196.543472,192.257538 189.555496,190.705475 
	C181.311707,188.874435 174.205612,184.529861 166.780533,179.923630 
	C165.344025,184.967819 167.152634,189.460754 167.563721,193.931473 
	C168.172058,200.547134 169.717316,207.129150 169.356918,213.781509 
	C167.993637,238.944580 175.424225,263.062775 177.865616,287.766235 
	C179.155701,300.820099 180.662689,313.855133 181.720337,326.927063 
	C181.920547,329.401428 183.152603,330.024109 184.773880,330.791779 
	C188.835953,332.715057 193.043396,334.343506 196.791428,336.890198 
	C199.932602,339.024536 201.960434,341.729095 200.868103,345.720062 
	C199.855988,349.417938 196.867645,350.233978 193.473007,350.393768 
	C182.626495,350.904297 171.867538,350.255768 161.192047,348.218750 
	C158.366272,347.679565 156.493881,346.008118 156.300873,343.283295 
	C155.572388,332.998383 151.214523,323.590546 149.542496,313.469971 
	C146.104095,292.657715 142.126343,271.900879 135.692032,251.456924 
	C134.622116,258.694366 133.489212,265.923187 132.494766,273.170990 
	C130.052368,290.972015 128.836258,308.900238 126.931870,326.752808 
	C126.296074,332.713135 123.698158,338.443054 124.251732,344.704529 
	C124.431511,346.738129 123.102966,348.504822 121.068466,349.406281 
	C112.612328,353.153107 103.969070,356.043823 94.508621,354.955811 
	C91.651077,354.627167 88.821777,354.172943 87.598549,350.953705 
	C86.379570,347.745667 87.479630,345.198761 89.565018,342.709564 
	C92.357948,339.375824 95.907997,336.886749 99.441528,333.672241 
	C96.515068,330.692657 97.032005,326.983551 96.826401,323.349426 
	C95.262611,295.707947 96.216415,268.045380 96.000328,240.393204 
	C95.987656,238.772156 96.329803,237.056915 95.350731,235.572006 
	C82.768913,234.515610 79.739998,230.950516 82.992149,220.585114 
	C75.304123,215.768524 68.735565,209.520889 62.723896,202.588623 
	C51.902466,190.110001 51.331429,182.665726 60.837330,169.232147 
	C63.140163,165.977814 65.886223,163.037109 68.672760,159.692108 
M96.513069,63.384975 
	C94.520050,65.169212 95.589394,68.142792 93.657143,70.119194 
	C87.351173,76.569206 86.850571,80.826736 90.479172,89.322960 
	C92.197433,93.346237 94.479515,95.759926 99.452866,94.106705 
	C99.960815,90.395531 103.268623,87.416206 102.340500,82.978638 
	C100.792740,75.578484 103.411049,72.487381 111.144112,72.405609 
	C117.126511,72.342346 123.112206,72.672729 129.096405,72.671135 
	C134.186905,72.669785 138.879272,71.272194 143.244171,68.514961 
	C147.650635,65.731468 148.207321,61.908810 147.240524,57.257450 
	C146.218307,52.339401 142.666763,50.180988 138.481049,48.601105 
	C137.439819,48.208099 136.581955,48.748680 135.837402,49.527653 
	C130.886505,54.707497 124.880875,55.499187 118.009415,54.600357 
	C111.900436,53.801270 105.639008,54.057163 100.449028,59.538296 
	C99.316689,60.663425 98.184349,61.788551 96.513069,63.384975 
M133.106064,224.712830 
	C141.174850,223.593155 149.325058,223.005478 157.187790,220.610474 
	C165.448990,218.094086 165.484711,218.162048 164.920563,209.779114 
	C164.809021,208.121643 164.554001,206.472656 164.334702,204.823792 
	C162.645859,192.126205 160.495438,179.481461 159.805389,166.670013 
	C159.719116,165.068130 158.797211,162.944504 161.383774,161.851578 
	C164.042633,163.998795 163.483032,167.278152 164.112244,170.036240 
	C164.578690,172.080795 165.043243,173.833130 166.921432,175.035889 
	C174.099411,179.632538 181.460251,183.835144 189.815399,185.943146 
	C197.539597,187.891937 204.199203,185.649246 208.602982,179.064560 
	C214.199417,170.696609 218.276535,161.602097 220.384979,151.684570 
	C220.906372,149.232025 220.568253,147.413910 217.901505,146.576996 
	C214.126358,145.392273 210.366211,144.159729 206.322586,142.858459 
	C203.333633,149.014389 200.529617,155.022125 197.517258,160.923508 
	C194.871933,166.105850 192.818741,166.793121 188.141235,163.210968 
	C181.804413,158.358078 175.798019,153.058945 169.809799,147.770157 
	C164.644653,143.208313 159.239182,139.192368 152.610229,136.929047 
	C146.564651,134.864929 144.134171,134.040543 144.062378,141.737595 
	C144.046448,143.445541 143.875732,145.724411 141.970856,146.523010 
	C139.839874,147.416397 138.799683,145.233932 137.484116,144.099762 
	C134.640945,141.648636 126.281807,141.916824 124.150024,144.593689 
	C118.627983,151.527740 117.341759,151.498138 112.045349,144.242950 
	C111.261406,143.169098 110.398529,142.078659 109.936073,140.858017 
	C108.464973,136.975174 106.088799,137.020493 102.838722,138.683441 
	C85.668274,147.468933 72.068535,160.175827 61.686054,176.311752 
	C57.920242,182.164383 58.415058,188.296173 61.990768,194.266251 
	C66.083786,201.100037 71.696083,206.485367 77.771103,211.497406 
	C84.056267,216.682816 84.572220,216.562668 89.923767,210.363708 
	C92.739563,207.102036 92.825211,204.659988 89.724792,201.458130 
	C85.797028,197.401825 82.409203,192.822647 78.789345,188.468277 
	C76.893738,186.188019 77.030212,184.309158 79.127060,181.947144 
	C84.273590,176.149811 90.260719,171.434738 96.679535,167.208038 
	C97.835426,166.446899 99.134430,165.209579 100.707809,166.778000 
	C101.131561,169.399673 98.048065,170.806290 98.507530,173.646942 
	C100.901482,188.447800 96.757477,203.884628 103.062828,218.401520 
	C104.105522,220.802124 104.628830,222.308746 107.337631,222.853897 
	C115.551582,224.507019 123.808342,225.241852 133.106064,224.712830 
M158.238037,328.583862 
	C164.771805,329.152893 171.057281,328.017914 177.058823,326.330963 
	C177.278778,325.505981 177.470276,325.174866 177.433258,324.871674 
	C174.028580,296.978394 170.575699,269.090942 167.224228,241.191315 
	C166.804642,237.698318 166.089752,234.874802 162.237885,233.526611 
	C160.258804,232.833908 158.589294,231.017548 157.977005,228.847916 
	C157.336777,226.579254 156.043259,225.907974 153.912918,226.389465 
	C137.774216,230.037094 121.589188,230.436981 105.371780,226.984924 
	C102.745300,226.425842 101.513382,227.509598 101.324127,229.930893 
	C101.147980,232.184555 100.460670,234.515839 101.779922,236.864136 
	C106.587425,236.558792 107.185921,231.499039 110.195404,229.174225 
	C112.554108,233.805847 108.699104,239.183212 101.227829,241.888931 
	C101.166100,243.279266 101.017914,244.764206 101.046692,246.245697 
	C101.502510,269.718872 100.479744,293.191315 101.166214,316.669647 
	C101.582199,330.896820 101.619553,331.043304 115.991982,330.951508 
	C120.677376,330.921539 122.426994,329.145386 122.855095,324.630066 
	C124.314384,309.238312 124.903954,293.763702 127.608711,278.484955 
	C129.287933,268.999329 130.122543,259.365112 131.763229,249.871414 
	C132.655762,244.706985 137.213120,242.422089 141.635666,244.510773 
	C139.725555,246.583038 140.089462,248.792480 140.725525,251.357300 
	C145.449051,270.404968 150.550629,289.362366 153.517410,308.819855 
	C154.507751,315.315063 154.681839,322.060272 158.238037,328.583862 
M104.142570,93.535713 
	C102.978813,95.716690 104.501572,100.024597 99.880844,99.461998 
	C96.223907,99.016754 93.389435,99.352493 93.228210,103.798302 
	C93.106178,107.163338 96.529015,110.011154 100.576637,109.401886 
	C103.273750,108.995903 104.386734,109.968864 105.765587,111.956268 
	C111.724022,120.544464 119.884071,125.012894 130.489182,123.912483 
	C137.226456,123.213409 142.670349,119.885918 145.191803,113.457031 
	C150.471970,99.994308 146.082199,87.090248 142.735352,73.224670 
	C135.108017,77.382355 127.629044,77.304634 120.112328,77.052231 
	C116.618820,76.934914 113.118546,76.964577 109.622169,77.003021 
	C106.188583,77.040771 104.497795,78.909492 105.550568,82.156303 
	C106.798149,86.003944 105.842392,89.347237 104.142570,93.535713 
M165.721832,333.299927 
	C164.564590,333.386566 163.390778,333.380157 162.254089,333.582275 
	C160.673615,333.863403 159.316559,334.553589 159.594116,336.501709 
	C159.848984,338.290588 159.964401,340.346893 162.391708,340.615051 
	C173.208099,341.809875 184.016174,343.300476 195.366852,342.369446 
	C191.402206,336.333649 186.257248,336.348572 181.486298,338.438660 
	C179.378784,336.449158 182.094009,336.239746 181.563538,335.057312 
	C179.381775,334.893341 177.480469,337.701111 175.445648,335.948029 
	C174.589676,334.013184 177.202011,333.510345 176.561005,331.791992 
	C173.116104,332.302582 169.845032,332.787445 165.721832,333.299927 
M88.347679,178.876389 
	C86.882912,180.221588 85.393486,181.541122 83.960266,182.919128 
	C82.503899,184.319382 81.750175,185.851578 83.352966,187.673782 
	C86.891701,191.696930 90.422569,195.727020 94.341736,200.193100 
	C94.341736,191.179642 94.341736,183.086349 94.341736,174.067245 
	C91.958878,175.975830 90.425919,177.203674 88.347679,178.876389 
M109.006218,338.463928 
	C106.537682,339.447479 105.735016,343.476532 101.672829,341.769806 
	C96.795380,339.720520 94.158035,342.959839 91.749619,347.183960 
	C100.359184,348.697571 107.849434,345.937531 115.429214,343.799225 
	C118.019302,343.068542 120.058235,341.963959 119.873032,338.756622 
	C119.767143,336.922699 119.371506,335.135040 117.193672,335.420502 
	C114.506470,335.772675 110.648521,333.152161 109.006218,338.463928 
M98.961639,220.427322 
	C98.956436,217.096619 98.688805,213.867554 95.792519,211.602524 
	C87.794151,216.884796 87.612129,217.191727 90.109230,226.041901 
	C90.729103,228.238846 90.961990,229.833344 87.768486,230.211487 
	C94.369156,232.606506 97.729637,229.739731 98.961639,220.427322 
M209.098114,138.398087 
	C218.445404,143.853027 221.520721,142.093292 223.966766,135.674042 
	C222.143494,134.724426 220.284149,133.756027 218.533524,132.844238 
	C216.608368,133.431473 217.637680,136.930740 214.383469,136.085693 
	C214.619278,132.094345 210.718826,130.821396 208.556152,128.639725 
	C209.272842,126.119034 212.169556,127.045715 212.747238,124.981926 
	C206.640594,123.524109 204.460052,125.582054 206.131683,131.321854 
	C206.777008,133.537704 207.792068,135.645889 209.098114,138.398087 
M132.145432,136.388062 
	C133.237503,133.986603 134.469299,131.612610 133.549988,128.106934 
	C128.164780,129.868484 123.034050,127.428627 117.404640,126.835114 
	C117.553703,128.116287 117.341171,129.262665 117.786377,129.646881 
	C121.427055,132.788803 125.097778,135.913727 128.960190,138.772476 
	C130.598175,139.984833 131.078461,137.959671 132.145432,136.388062 
M119.524673,136.815735 
	C117.321632,135.796158 116.050972,133.314499 113.500908,132.811676 
	C111.379547,137.086884 112.544220,139.869324 118.479050,144.974594 
	C122.632484,140.432724 122.676071,140.217804 119.524673,136.815735 
M213.786652,110.719109 
	C213.625381,109.355225 214.352570,107.845604 212.883331,106.284378 
	C211.227295,110.658768 210.376160,114.789467 210.931686,120.532364 
	C213.542633,116.977615 213.555786,114.222794 213.786652,110.719109 
M160.598114,227.270111 
	C161.886414,228.798569 162.970718,230.635529 165.596909,230.810120 
	C165.496597,228.020721 165.262283,225.680130 163.667908,223.070999 
	C162.210358,224.254791 159.392700,223.399963 160.598114,227.270111 
M140.429749,132.896088 
	C136.985855,130.720612 137.554504,134.420074 137.112915,135.540482 
	C136.006836,138.346832 138.230896,139.027084 140.384247,139.827942 
	C140.960205,137.486008 141.055756,135.516647 140.429749,132.896088 
z"/>
<path fill="#000000" opacity="1.000000" stroke="none" 
	d="
M205.558502,88.299606 
	C203.282913,86.195618 202.582108,83.857635 202.831451,81.251831 
	C203.369476,75.629211 201.620407,71.062065 197.801941,66.749344 
	C192.350937,60.592770 192.306915,53.264343 195.983902,46.255505 
	C199.636032,39.294079 205.823334,36.209900 213.761932,36.735279 
	C221.079498,37.219555 226.350830,40.688351 229.286819,47.398525 
	C232.308228,54.303982 231.287903,60.940186 226.376785,66.458496 
	C222.423889,70.900101 220.502075,75.694725 221.440659,81.436523 
	C222.333282,86.897179 218.818726,89.389633 215.009430,91.512054 
	C211.177292,93.647194 208.437561,91.015366 205.558502,88.299606 
M217.171036,71.306488 
	C217.207855,71.799393 217.244690,72.292297 217.281525,72.785202 
	C218.135590,68.295715 222.121750,65.915810 224.264618,62.313683 
	C227.989761,56.051792 227.093262,48.436848 222.102020,44.055622 
	C216.951965,39.534992 208.512207,39.320259 203.172729,43.574001 
	C197.244034,48.297157 195.777954,55.184685 199.367813,61.856163 
	C201.716614,66.221230 205.884033,69.401871 207.258118,74.478409 
	C207.480515,70.347893 208.478394,66.390213 205.688889,62.804276 
	C201.313110,57.179150 201.648071,56.460999 208.465302,55.171143 
	C209.227081,55.027008 209.512253,54.555275 209.938873,54.058350 
	C211.840958,51.842739 213.690918,52.072899 215.081268,54.522667 
	C215.717468,55.643589 216.289078,55.513218 217.401169,55.526096 
	C221.265961,55.570866 222.375549,57.376347 220.159622,60.346413 
	C217.797668,63.512192 217.121994,66.911552 217.171036,71.306488 
M210.362839,65.847969 
	C210.743866,68.831596 211.124878,71.815231 211.668198,76.069679 
	C214.504486,71.702080 213.253769,68.103439 213.963196,64.854149 
	C214.346619,63.097988 215.058701,60.759197 212.295059,60.717533 
	C209.215973,60.671116 209.953842,63.155437 210.362839,65.847969 
z"/>
<path fill="#000000" opacity="1.000000" stroke="none" 
	d="
M235.057434,45.922707 
	C239.007446,44.567799 239.007446,44.567799 241.820099,45.785225 
	C240.363052,48.602905 237.653381,49.003029 235.132401,48.828266 
	C232.844086,48.669628 232.854874,47.289097 235.057434,45.922707 
z"/>
<path fill="#000000" opacity="1.000000" stroke="none" 
	d="
M212.539520,24.611155 
	C213.894897,27.272150 214.818436,29.685511 212.536697,32.001644 
	C209.030548,28.994686 208.977875,26.768606 212.539520,24.611155 
z"/>
<path fill="#000000" opacity="1.000000" stroke="none" 
	d="
M231.063080,33.212791 
	C229.669540,34.721230 228.976929,36.788277 226.252975,36.041801 
	C225.768692,32.239304 228.532043,30.794359 231.031113,29.105824 
	C233.264389,30.451000 231.881104,31.699572 231.063080,33.212791 
z"/>
<path fill="#000000" opacity="1.000000" stroke="none" 
	d="
M193.886597,30.146519 
	C195.787033,32.005917 197.925003,33.431942 197.554916,36.505768 
	C193.873856,37.021404 193.212830,33.965714 191.932922,32.041489 
	C191.142136,30.852594 192.013596,29.891691 193.886597,30.146519 
z"/>
<path fill="#000000" opacity="1.000000" stroke="none" 
	d="
M185.261749,44.956970 
	C187.696960,45.310566 189.717621,45.754547 190.887115,48.198307 
	C188.392044,49.881027 186.301819,48.631702 184.450073,47.650723 
	C182.820831,46.787636 183.083649,45.599735 185.261749,44.956970 
z"/>
<path fill="#000000" opacity="1.000000" stroke="none" 
	d="
M100.669647,59.342400 
	C102.563866,58.713196 104.126823,57.621696 106.008804,58.121658 
	C105.563179,61.353729 101.116127,65.600723 98.160812,65.547821 
	C97.232574,65.531204 97.181099,64.404427 97.068970,63.254105 
	C98.184349,61.788551 99.316689,60.663425 100.669647,59.342400 
z"/>
<path fill="#000000" opacity="1.000000" stroke="none" 
	d="
M123.291077,113.704430 
	C121.770691,111.631653 120.383522,109.709221 121.742714,107.527367 
	C123.120148,105.316231 125.361130,106.659668 127.228180,106.827042 
	C129.865250,107.063461 132.480362,107.535141 135.114456,107.816574 
	C139.115997,108.244102 139.264587,110.441132 137.670212,113.357063 
	C135.097641,118.061935 128.945801,118.314720 123.291077,113.704430 
z"/>
<path fill="#000000" opacity="1.000000" stroke="none" 
	d="
M131.394165,103.231796 
	C129.701721,99.737930 134.423218,101.306458 134.292053,98.988632 
	C133.666153,95.819893 129.941986,93.435989 131.782745,88.985962 
	C135.332047,91.276939 137.432144,94.425110 138.444336,97.918854 
	C139.531494,101.671379 136.174988,104.159538 131.394165,103.231796 
z"/>
<path fill="#000000" opacity="1.000000" stroke="none" 
	d="
M137.202545,83.774307 
	C135.115768,83.921051 134.164001,83.047386 134.967361,81.464005 
	C136.179428,79.075066 138.510651,78.740936 140.918274,79.174370 
	C142.063492,79.380539 143.234909,79.929237 143.232193,81.335442 
	C143.227722,83.639877 141.329544,83.075378 139.979568,83.300613 
	C139.171539,83.435425 138.362457,83.564011 137.202545,83.774307 
z"/>
<path fill="#000000" opacity="1.000000" stroke="none" 
	d="
M112.114471,86.954475 
	C115.206802,81.691185 117.931885,81.164665 121.666283,85.277245 
	C118.354485,86.082207 115.667381,88.075661 112.114471,86.954475 
z"/>
<path fill="#000000" opacity="1.000000" stroke="none" 
	d="
M121.103622,96.896744 
	C117.695267,98.496399 117.036598,96.522331 117.110329,94.114510 
	C117.154732,92.664413 117.814156,90.859962 119.741615,91.504913 
	C122.274605,92.352486 122.521553,94.379265 121.103622,96.896744 
z"/>
<path fill="#000000" opacity="1.000000" stroke="none" 
	d="
M142.274567,93.218185 
	C138.876816,94.728737 138.133560,92.754944 137.964264,90.348328 
	C137.864578,88.931107 138.553329,87.373505 140.164612,87.691734 
	C143.070770,88.265686 143.718109,90.293266 142.274567,93.218185 
z"/>
<path fill="#000000" opacity="1.000000" stroke="none" 
	d="
M99.011963,105.892929 
	C97.193542,104.864929 95.581833,104.051567 94.991127,101.890030 
	C97.523994,100.281189 99.510574,100.683342 100.927628,102.957047 
	C101.886757,104.495995 101.488251,105.810867 99.011963,105.892929 
z"/>
<path fill="#000000" opacity="1.000000" stroke="none" 
	d="
M138.602829,61.410862 
	C139.105469,59.852428 139.109299,58.409946 140.469391,57.649055 
	C143.043823,58.066788 140.888260,60.154701 141.708984,61.209808 
	C143.265717,60.372322 142.135849,58.290440 143.489182,57.380165 
	C143.813644,57.442871 144.337296,57.429474 144.382065,57.569332 
	C145.813263,62.041195 142.746292,64.859886 140.352188,68.942772 
	C139.602661,65.987343 139.065216,63.868145 138.602829,61.410862 
z"/>
</svg>