<svg version="1.1" id="Layer_1" xmlns="http://www.w3.org/2000/svg" xmlns:xlink="http://www.w3.org/1999/xlink" x="0px" y="0px"
	 width="100%" viewBox="0 0 304 368" enable-background="new 0 0 304 368" xml:space="preserve">
<path fill="#000000" opacity="1.000000" stroke="none" 
	d="
M74.351715,206.456177 
	C80.416794,191.746719 86.953857,177.716827 96.461472,165.316986 
	C102.660500,157.232208 111.382919,152.701141 120.555969,148.933578 
	C126.507309,146.489227 126.869110,145.041031 122.527122,140.137161 
	C121.754242,139.264267 120.771431,138.492447 120.264534,137.483536 
	C118.049133,133.074051 115.038025,130.360611 109.896530,128.894073 
	C103.892868,127.181641 101.319183,119.066826 104.311676,113.490128 
	C105.734550,110.838509 105.285942,108.972008 104.042961,106.593391 
	C98.876839,96.707291 97.159256,86.778381 104.370483,76.992592 
	C102.855530,69.613571 107.987717,69.220718 113.112061,67.978523 
	C115.124168,67.490753 116.554062,64.535004 118.214226,62.672115 
	C130.289169,49.122730 155.873810,50.815327 166.483322,63.148403 
	C174.478378,72.442284 180.527191,83.865166 177.836227,97.371346 
	C177.338104,99.871567 177.958344,101.720177 179.342148,103.820457 
	C183.507492,110.142464 181.739258,117.054482 175.287918,120.925987 
	C174.449112,121.429352 173.009659,121.995316 172.970016,122.605171 
	C172.481812,130.117050 167.246948,136.348923 166.859772,144.093002 
	C172.886154,146.046646 178.786606,147.134903 184.332779,149.417511 
	C196.500580,154.425354 203.823120,164.282791 209.832687,175.199554 
	C217.320740,188.802124 223.797699,202.808136 224.662476,218.778442 
	C225.024536,225.464645 224.129547,231.678497 220.867722,237.437927 
	C221.979828,239.252731 223.652252,238.520035 225.034607,238.651794 
	C234.333801,239.538147 241.686462,243.297546 245.281235,252.456039 
	C248.869553,261.598022 246.837082,269.863190 240.651535,277.106873 
	C234.543686,284.259583 226.356781,288.479889 217.827591,291.982483 
	C212.135620,294.320007 206.581360,297.064087 200.552902,298.516754 
	C197.555542,299.239014 197.034271,300.781128 198.191620,303.631531 
	C200.569214,309.487244 202.947571,315.403015 202.292236,321.961182 
	C201.867249,326.214020 201.119080,330.496735 196.759567,332.452789 
	C192.263657,334.470001 187.990219,333.337463 184.141510,330.330078 
	C181.090118,327.945740 178.426849,325.246613 176.430389,321.902740 
	C174.180344,318.134125 171.278442,314.933533 167.662521,312.441162 
	C164.967850,310.583801 162.280380,308.103333 159.253693,312.195526 
	C158.428238,313.311554 156.831070,312.966370 155.477951,312.674866 
	C152.548721,312.043732 149.494507,311.812012 146.680527,310.858704 
	C135.699661,307.138580 127.169243,311.243011 119.755203,318.993958 
	C115.000244,323.964996 109.874405,327.854340 102.445053,327.404480 
	C96.574089,327.049011 94.149643,324.882507 93.592232,318.876862 
	C92.976624,312.244110 94.427025,306.019073 97.966278,299.790161 
	C90.730980,296.824646 83.737724,294.742279 77.196648,291.552094 
	C72.394081,289.209839 67.622581,286.890503 63.350342,283.634583 
	C55.197510,277.421265 50.606140,269.436005 52.227123,259.021637 
	C53.869377,248.470642 60.483200,242.281067 70.869438,240.038574 
	C71.638184,239.872589 72.358925,239.484283 73.420975,239.076996 
	C66.730927,228.001419 70.380562,217.405365 74.351715,206.456177 
M169.422791,108.619606 
	C167.965500,107.815308 167.226746,106.384064 167.170334,104.917191 
	C166.806854,95.460609 161.809921,91.662773 152.640518,92.519371 
	C150.200546,92.747314 147.248260,90.980072 145.356979,92.445045 
	C141.406586,95.504997 137.535950,94.185959 133.494553,93.491646 
	C129.681503,92.836555 126.582024,90.461044 122.724449,88.754868 
	C121.668991,92.799637 120.930733,96.586067 118.781570,99.768570 
	C116.418465,103.267876 116.142540,107.170326 116.040398,111.213867 
	C115.975853,113.769119 114.035889,114.442551 111.782974,114.258141 
	C110.109047,114.121124 108.533730,113.787689 107.649849,115.914810 
	C105.795135,120.378304 109.271843,125.203781 114.424042,124.988419 
	C115.296959,120.691628 109.599808,120.912750 108.977219,117.222122 
	C112.462891,116.536560 114.863907,116.425697 116.480774,120.487099 
	C118.491211,125.537132 120.554871,130.685165 123.915016,135.093597 
	C125.220779,136.806747 126.514297,138.689148 128.979248,138.774307 
	C135.309998,138.992996 140.942383,141.559570 146.551178,144.077133 
	C150.363647,145.788361 153.466568,146.473450 155.260681,141.490662 
	C155.877045,139.778870 157.273224,138.186356 159.008820,137.624451 
	C165.368698,135.565430 166.121094,129.936523 167.736526,124.728951 
	C169.332764,119.583282 167.943436,114.047203 170.511887,108.659210 
	C171.866043,107.637810 173.136856,105.353302 175.014252,107.315140 
	C176.702332,109.079178 174.318558,110.113205 173.530701,111.392448 
	C172.395691,113.235367 171.612091,115.093956 173.012360,117.409065 
	C176.133484,115.967209 176.817352,113.532349 176.774399,110.788612 
	C176.742233,108.733734 177.396820,106.105522 174.517685,105.440971 
	C171.831741,104.821014 170.746140,106.847496 169.422791,108.619606 
M107.872963,253.758881 
	C132.687454,253.758621 157.502151,253.710266 182.316208,253.812180 
	C185.856186,253.826721 187.696869,253.155273 188.062653,249.043762 
	C189.388000,234.146774 191.103439,219.284195 192.708344,204.412567 
	C193.110336,200.687469 191.395050,199.312881 187.815125,199.337143 
	C179.655563,199.392441 171.494812,199.238617 163.334656,199.249146 
	C143.183517,199.275192 123.032471,199.353714 102.881348,199.391068 
	C99.399078,199.397522 96.035645,199.996490 96.610542,204.422607 
	C98.602463,219.758408 100.915604,235.052246 103.037888,250.371567 
	C103.376167,252.813385 104.534866,253.944717 107.872963,253.758881 
M153.317932,307.681396 
	C156.585587,308.786072 158.636292,307.679077 160.016541,304.489563 
	C162.069122,299.746429 163.825134,294.913910 165.443588,290.010956 
	C166.611755,286.472107 165.664230,284.622711 162.058365,283.266296 
	C151.784424,279.401428 141.638748,275.193695 131.462219,271.072418 
	C123.216019,267.732910 115.473381,262.733093 105.875473,264.129486 
	C103.773895,264.435242 101.238152,263.427460 100.438660,261.265747 
	C99.454704,258.605225 97.215218,258.325104 95.256752,257.219696 
	C92.421112,255.619247 88.400238,256.116028 86.319725,252.456390 
	C90.613365,249.880478 94.205940,253.426559 98.015854,253.287018 
	C97.622971,248.883713 97.598686,248.980515 94.251007,248.140640 
	C90.064430,247.090271 85.884659,245.981735 81.769318,244.684586 
	C71.394257,241.414352 59.070290,248.145294 56.736805,258.597412 
	C55.109966,265.884338 57.383106,272.062683 62.702904,277.167023 
	C71.261909,285.379395 82.073433,289.244812 93.041550,292.790436 
	C112.539246,299.093384 132.600388,303.120728 153.317932,307.681396 
M151.243057,190.974762 
	C150.107819,188.406036 148.212814,185.898453 149.031952,182.973602 
	C149.766495,180.350815 148.565018,178.925858 146.932739,177.366333 
	C144.953644,175.475449 142.565247,174.372711 140.090927,173.341644 
	C132.561172,170.203964 130.022430,164.945938 132.525330,157.434708 
	C133.155807,155.542618 134.409058,153.943222 132.361328,152.065231 
	C130.304260,150.178696 128.349396,150.496307 125.947067,151.279495 
	C112.426460,155.687317 101.829475,163.493256 94.616119,176.057205 
	C86.048439,190.980087 77.584465,205.884018 74.650208,223.134064 
	C73.571220,229.477280 75.087585,235.280350 80.743668,238.939087 
	C85.619766,242.093277 91.327477,243.194885 97.305504,244.243820 
	C97.217430,243.109634 97.196800,242.467957 97.114075,241.834366 
	C95.564217,229.964127 93.815628,218.115723 92.517471,206.218155 
	C91.627930,198.065506 93.956383,195.835968 102.332283,195.624985 
	C102.831894,195.612396 103.336296,195.570312 103.831017,195.618469 
	C107.086723,195.935455 108.784569,194.767838 108.879402,191.204117 
	C108.934845,189.120667 108.841217,186.606796 111.477646,185.096039 
	C113.743927,188.279282 111.042068,191.907181 112.802017,194.834549 
	C125.190613,194.834549 137.483734,194.845184 149.776810,194.825348 
	C152.165283,194.821503 152.697739,193.650238 151.243057,190.974762 
M199.459839,257.080414 
	C185.720535,264.747559 169.835358,267.531677 156.271439,276.076752 
	C159.873978,278.976746 165.576202,278.531403 168.065643,282.016052 
	C171.512405,286.840759 175.991455,286.752594 180.721603,287.049133 
	C185.833237,287.369568 190.697113,288.006317 193.404144,293.310822 
	C194.312515,295.090790 196.162308,294.924164 197.849426,294.463379 
	C211.291809,290.791931 223.963242,285.449066 234.805557,276.508453 
	C241.424591,271.050354 243.605011,262.323364 240.857407,254.376419 
	C238.520508,247.617355 231.863190,243.644730 223.155045,242.951202 
	C214.982361,242.300339 207.451294,245.372284 199.551544,246.225937 
	C193.037460,246.929871 192.472641,248.004868 193.337784,255.025711 
	C198.681717,253.538193 203.615112,250.053223 210.319519,251.010132 
	C207.185822,254.721420 203.305481,255.079666 199.459839,257.080414 
M199.465042,210.409393 
	C195.842987,207.754730 196.556763,211.539062 196.416138,212.770203 
	C195.605865,219.862762 195.103439,226.989899 194.418991,234.097824 
	C194.222229,236.141174 194.761047,237.495712 196.669830,238.573975 
	C206.593323,244.179718 218.145630,238.615479 219.676208,227.331482 
	C220.191742,223.530807 220.102203,219.693024 219.552551,215.884003 
	C216.878357,197.351944 209.345215,180.818359 198.349762,165.871490 
	C190.366440,155.019241 178.453690,151.211502 165.774246,148.381332 
	C164.156693,154.672272 165.462830,159.929214 167.272812,165.139908 
	C167.819611,166.714081 168.237885,168.410477 170.245071,168.765900 
	C172.762329,169.211639 174.218445,171.066452 175.711182,172.852600 
	C179.200882,177.028244 182.659683,181.229721 186.186569,185.487854 
	C187.405350,183.950562 186.142883,181.428436 189.813248,180.529083 
	C188.285019,194.185043 200.300140,201.783752 204.776474,213.179718 
	C201.560364,213.906784 201.033096,211.894379 199.465042,210.409393 
M152.388229,88.202461 
	C155.367523,88.469223 158.365891,89.085907 161.321869,88.924805 
	C166.385208,88.648849 168.585464,91.060829 169.132202,95.776703 
	C169.345261,97.614464 168.986099,99.862724 171.570679,100.932899 
	C171.944046,100.367928 172.427032,99.890282 172.614517,99.316139 
	C176.843063,86.367508 171.142776,75.445236 163.586502,66.330498 
	C153.170197,53.765873 128.805328,55.232613 119.177956,67.975334 
	C116.794144,71.130516 114.595566,73.486923 110.994690,72.549530 
	C109.432037,79.207993 103.267326,83.584251 104.011604,90.909813 
	C104.700691,97.692093 106.869514,103.444229 111.072113,108.643982 
	C111.790253,105.052345 111.534874,101.511833 114.127304,98.677727 
	C117.027283,95.507385 118.380508,91.684998 118.854210,87.388771 
	C119.373055,82.683060 120.654358,82.150398 124.506950,84.759766 
	C129.065704,87.847412 133.892136,90.049026 139.545258,90.436348 
	C139.395935,88.199631 136.563919,87.178116 138.054581,84.207504 
	C142.536819,85.229721 146.764587,87.784042 152.388229,88.202461 
M152.114548,175.922989 
	C154.641754,176.760300 161.806137,173.410980 163.225784,170.753967 
	C163.736252,169.798599 163.710129,168.836044 163.379684,167.865784 
	C160.382416,159.065231 159.328140,150.167053 162.687378,140.728500 
	C159.059357,142.536728 159.059341,142.536728 158.166046,144.376419 
	C154.234146,152.473892 154.236832,152.468323 146.131393,148.575790 
	C144.033844,147.568466 141.968216,146.459457 139.790924,145.661972 
	C136.787537,144.561859 133.809402,143.073303 129.766342,143.634247 
	C133.780182,148.549332 141.068832,147.508698 144.111786,152.532593 
	C142.244049,155.387894 140.017731,152.466599 138.346802,153.816422 
	C138.675735,155.775131 142.226669,155.769867 141.252991,158.176483 
	C139.995346,160.237106 137.820496,157.384323 136.800629,159.377411 
	C137.001236,161.279099 139.453827,161.604752 139.385071,164.152802 
	C139.727036,165.726761 136.655457,163.918243 136.724518,165.999359 
	C140.940613,170.190521 147.457855,171.024338 152.114548,175.922989 
M160.260880,194.635849 
	C168.985397,194.635849 177.709930,194.635849 187.296677,194.635849 
	C182.109863,187.035400 176.671906,180.836121 171.154526,174.702194 
	C170.055634,173.480499 168.640610,172.863968 167.157135,173.870331 
	C162.899124,176.758957 158.699127,179.734268 154.515656,182.730438 
	C153.827591,183.223206 153.419128,184.111465 153.824402,184.949875 
	C155.440063,188.292358 155.883408,192.332840 160.260880,194.635849 
M191.024948,308.554108 
	C189.481476,305.248260 188.060120,301.878510 186.370377,298.649200 
	C182.203949,290.686707 181.254120,290.257721 171.564621,291.449615 
	C174.572861,296.751801 173.417770,302.018402 171.182571,307.473328 
	C172.934387,306.864746 172.956696,305.525238 173.531372,304.611359 
	C174.414520,303.207001 175.159714,301.161743 177.174011,302.403351 
	C179.169693,303.633484 177.629654,305.360291 176.890610,306.751465 
	C175.930237,308.559235 174.516541,310.196655 174.936462,313.315765 
	C175.734650,311.721436 176.046616,310.800140 176.598999,310.057739 
	C177.708282,308.566895 178.365417,305.467194 180.643890,306.589722 
	C183.407150,307.951050 180.543472,309.870758 180.003220,311.531097 
	C179.814209,312.112000 179.591583,312.681976 179.296844,313.499512 
	C181.346420,313.008362 181.693680,310.193909 184.040955,310.936768 
	C185.728195,312.251282 184.619232,313.523651 183.976166,314.839874 
	C181.174042,320.575348 181.957352,323.676636 186.859909,327.170532 
	C189.974701,329.390381 191.851120,328.443176 192.547104,324.986786 
	C193.616959,319.673767 193.248581,314.410095 191.024948,308.554108 
M157.872879,270.314758 
	C161.898895,268.450897 165.924911,266.587067 170.263687,264.578430 
	C155.948563,264.578430 142.042618,264.578430 127.082047,264.578430 
	C133.028427,266.998047 138.171951,268.594910 142.815521,271.113525 
	C147.932129,273.888641 152.502563,273.942230 157.872879,270.314758 
M111.915115,302.618195 
	C107.444023,300.674225 105.535820,303.003571 104.398636,306.965118 
	C103.516266,310.038940 102.908661,313.141205 103.086067,316.317810 
	C103.209259,318.523529 102.392372,321.384399 105.198944,322.446594 
	C107.628769,323.366180 109.630569,321.568573 111.596344,320.359222 
	C114.261726,318.719482 114.020653,316.304779 113.324875,313.730042 
	C112.786720,311.738617 111.026611,310.089783 111.428246,307.508698 
	C115.432037,307.534088 115.771675,311.107910 117.544060,313.556274 
	C117.917061,310.456909 115.327316,308.443268 115.657265,306.079681 
	C116.066650,303.147095 114.218750,303.301270 111.915115,302.618195 
M131.499969,258.164490 
	C122.834549,258.164490 114.169136,258.164490 105.503716,258.164490 
	C105.513298,258.608337 105.522881,259.052185 105.532463,259.496033 
	C132.495300,259.496033 159.458130,259.496033 186.420975,259.496033 
	C186.424301,259.053955 186.427628,258.611908 186.430969,258.169830 
	C168.453949,258.169830 150.476913,258.169830 131.499969,258.164490 
M169.381332,301.105225 
	C170.443680,299.244690 170.550415,297.415466 168.824860,294.915161 
	C167.871231,298.964844 165.333771,301.912720 165.601456,306.085022 
	C168.047012,305.259064 167.934723,303.025208 169.381332,301.105225 
M97.649193,319.495392 
	C97.743507,319.631805 97.812759,319.802643 97.939301,319.894775 
	C98.061790,319.984009 98.243217,319.992310 98.398766,320.036133 
	C98.783310,314.528107 98.701012,308.947815 101.268906,303.770966 
	C98.339920,308.462524 96.781021,313.432648 97.649193,319.495392 
M197.572159,314.363586 
	C197.015533,312.851654 197.178299,311.003754 195.089981,309.324402 
	C196.812317,314.435486 197.627731,318.945923 197.442062,323.620209 
	C198.318604,320.768097 198.121490,317.966675 197.572159,314.363586 
z"/>
<path fill="#000000" opacity="1.000000" stroke="none" 
	d="
M136.999023,229.601303 
	C136.441772,225.466568 137.968903,222.575012 141.257935,221.044891 
	C143.615463,219.948151 144.064865,216.906525 147.110733,216.164398 
	C147.683456,218.808762 148.867905,221.085724 150.259094,223.349625 
	C153.364288,228.402802 152.695312,231.937561 148.911102,234.107361 
	C144.307266,236.747116 140.021805,235.254959 136.999023,229.601303 
M147.772614,229.358521 
	C147.984497,227.380035 149.585754,225.074738 146.345230,223.957321 
	C144.104523,223.184677 142.434082,223.954651 141.117706,225.694519 
	C139.898087,227.306503 140.277390,228.903763 141.697937,230.127792 
	C143.611725,231.776855 145.661469,232.798126 147.772614,229.358521 
z"/>
<path fill="#000000" opacity="1.000000" stroke="none" 
	d="
M149.540787,122.724495 
	C147.399887,124.773079 145.441559,126.179741 143.141327,123.863510 
	C142.871567,121.399017 145.699509,121.735909 146.081619,119.933113 
	C145.932312,116.383385 141.939392,113.577797 143.558609,109.393318 
	C147.910782,111.660965 150.755386,117.788437 149.540787,122.724495 
z"/>
<path fill="#000000" opacity="1.000000" stroke="none" 
	d="
M148.746460,99.968079 
	C151.116547,96.151917 154.649139,96.210838 158.108978,96.837402 
	C160.241364,97.223572 160.920761,98.950119 159.900070,101.412071 
	C156.775085,100.580399 153.588791,100.015190 150.444443,101.528542 
	C149.560074,101.954193 148.909454,101.260406 148.746460,99.968079 
z"/>
<path fill="#000000" opacity="1.000000" stroke="none" 
	d="
M122.392410,107.018295 
	C124.381645,102.497711 128.821213,103.937286 132.144943,102.668739 
	C132.406693,102.568848 133.270233,103.355736 133.447861,103.870636 
	C133.804367,104.904068 133.337601,106.061050 132.380676,106.347305 
	C129.187531,107.302483 126.049988,109.288704 122.392410,107.018295 
z"/>
<path fill="#000000" opacity="1.000000" stroke="none" 
	d="
M147.473083,129.492462 
	C149.808289,128.766815 151.817856,127.879829 154.394531,130.501923 
	C149.563004,132.399902 145.654938,134.931686 140.302460,134.994781 
	C141.264297,130.704330 144.740845,130.887604 147.473083,129.492462 
z"/>
<path fill="#000000" opacity="1.000000" stroke="none" 
	d="
M158.240738,113.150024 
	C154.459061,114.932014 153.508438,112.596031 153.216705,109.943825 
	C153.037994,108.319130 154.306000,106.788719 155.940918,107.163727 
	C158.933304,107.850113 159.652603,110.050613 158.240738,113.150024 
z"/>
<path fill="#000000" opacity="1.000000" stroke="none" 
	d="
M132.765350,113.330643 
	C133.068588,115.631660 132.422516,117.021988 130.322876,117.145760 
	C128.772278,117.237137 127.947235,116.181221 127.561134,114.791183 
	C127.173698,113.396355 127.381630,112.073540 128.708298,111.326561 
	C130.602142,110.260231 131.804047,111.262993 132.765350,113.330643 
z"/>
</svg>