<svg version="1.1" id="Layer_1" xmlns="http://www.w3.org/2000/svg" xmlns:xlink="http://www.w3.org/1999/xlink" x="0px" y="0px"
	 width="100%" viewBox="0 0 288 352" enable-background="new 0 0 288 352" xml:space="preserve">
<path fill="#000000" opacity="1.000000" stroke="none" 
	d="
M40.154510,202.279907 
	C44.485989,198.404495 46.429607,193.892868 47.988533,188.585831 
	C54.768551,165.504593 67.454338,145.979126 85.573082,130.109741 
	C91.930206,124.541855 99.471626,120.925850 107.595459,118.755165 
	C110.914917,117.868225 112.260063,115.942039 112.689690,112.880524 
	C113.134148,109.713333 110.679878,109.100662 108.571503,108.107475 
	C99.758133,103.955795 93.397697,97.653816 90.871529,87.946243 
	C90.166786,85.238060 86.985497,83.098221 87.803085,80.231079 
	C90.262817,71.605247 89.618645,61.246464 99.946335,56.639580 
	C101.599319,55.902229 102.184479,54.225433 103.151413,52.904434 
	C108.883278,45.073776 115.987244,42.686691 124.963272,45.863110 
	C126.998108,46.583187 128.682281,46.526157 130.699753,45.806660 
	C139.526184,42.658871 146.437439,45.591339 150.402893,53.941746 
	C150.686340,54.538601 150.891495,55.290051 151.371750,55.658482 
	C159.199524,61.663666 157.713562,68.827362 153.828445,76.153397 
	C152.492676,78.672195 152.323532,81.032829 152.735764,83.808243 
	C153.667068,90.078514 154.010223,96.462074 152.677841,102.693275 
	C150.811111,111.423569 144.726120,116.209526 136.024155,118.911201 
	C150.938354,122.172806 158.590958,134.422424 169.006332,143.926758 
	C170.844269,139.027756 172.679916,134.326065 174.355164,129.567902 
	C174.959259,127.852089 173.741608,126.365936 173.137054,124.849518 
	C171.591949,120.973946 170.801041,117.211136 173.715286,113.528725 
	C175.396576,111.404297 174.477982,109.730247 172.273849,108.774284 
	C170.760925,108.118126 169.102051,107.781418 167.490402,107.373009 
	C161.479233,105.849678 159.146942,103.166008 158.414703,96.463280 
	C157.872360,91.498802 159.889709,88.173531 164.354065,85.463066 
	C168.983170,82.652565 173.906769,81.752327 178.971985,80.875671 
	C193.598099,78.344292 205.421799,71.395035 213.916779,59.026352 
	C219.114288,51.458755 227.437210,51.422569 232.974930,58.867245 
	C236.815079,64.029762 239.316742,69.851753 240.639160,76.100006 
	C242.788544,86.255623 243.893311,96.483131 241.144196,106.733780 
	C240.715729,108.331375 240.139740,109.916321 239.419571,111.404312 
	C235.323990,119.866310 229.400070,121.411484 221.588501,116.120049 
	C212.007950,109.630341 203.105530,106.816833 194.377228,107.626694 
	C195.763306,111.021133 196.298630,114.568573 197.787476,117.942886 
	C200.369293,123.794334 199.755615,129.608780 195.295471,134.486481 
	C193.785538,136.137772 193.312195,137.817352 193.307953,139.883606 
	C193.292389,147.460876 191.558029,154.751770 189.225082,161.879715 
	C185.822083,172.277069 178.430008,175.782684 168.148056,172.340637 
	C161.547653,170.131058 156.149841,165.981354 150.279953,161.559158 
	C149.549469,170.224197 150.467972,178.397034 151.438080,186.536499 
	C151.823288,189.768524 154.737625,188.565887 156.717834,188.598328 
	C165.353043,188.739838 174.050629,187.946335 182.580414,189.782715 
	C192.783615,191.979340 197.548584,197.619675 197.157532,208.144577 
	C196.520630,225.286530 194.052322,242.245331 190.084625,258.936646 
	C189.423920,261.716187 190.433990,262.584534 192.416855,263.421356 
	C197.140121,265.414703 201.770782,267.129272 205.158447,271.666870 
	C207.149521,274.333771 211.674561,273.598541 215.051102,274.368805 
	C226.994461,277.093567 227.060196,277.010437 227.160553,289.348511 
	C227.251343,300.512665 227.061172,311.681763 227.332047,322.840515 
	C227.437424,327.181000 225.682800,329.192627 221.663300,330.165985 
	C209.852859,333.026001 198.083328,336.055450 186.303619,339.041504 
	C182.824371,339.923492 179.371826,339.792175 175.936035,338.890961 
	C166.433853,336.398560 156.963547,333.778717 147.427429,331.424805 
	C143.969971,330.571350 142.206573,328.702087 142.167938,325.222870 
	C142.005203,310.561768 141.866837,295.900391 141.738831,281.238953 
	C141.714325,278.431946 143.243652,277.035095 145.954483,276.605896 
	C150.065567,275.954987 154.155930,275.173981 158.257492,274.462067 
	C160.994308,273.987030 162.883286,272.851196 162.824600,269.623108 
	C162.541214,254.035187 163.265472,238.489075 165.417374,222.993225 
	C162.119125,221.552505 159.096695,222.238281 156.196701,222.412491 
	C148.722961,222.861435 141.273926,223.729874 133.799271,224.150909 
	C130.748291,224.322754 129.913086,226.032593 129.318924,228.498306 
	C124.056320,250.337540 119.567261,272.336334 115.332886,294.396088 
	C113.714233,302.828796 113.233192,311.509644 109.659126,319.588013 
	C108.613525,321.951294 109.423882,325.170410 109.516907,327.992828 
	C109.605560,330.682770 109.096008,333.099945 106.422394,334.268341 
	C97.666222,338.094818 88.783119,341.355438 78.929131,339.424896 
	C72.710243,338.206543 70.593155,332.366638 74.892136,327.550873 
	C77.201439,324.963989 80.070961,322.871460 82.726852,320.601715 
	C84.509476,319.078217 85.729218,317.610260 84.163986,315.083771 
	C83.531311,314.062531 83.476189,312.501251 83.592842,311.225494 
	C85.168594,293.992096 87.031326,276.782227 88.388199,259.532349 
	C89.483810,245.603973 90.108040,231.634323 90.703377,217.672836 
	C90.937477,212.182907 91.968887,206.782608 89.223602,201.195282 
	C87.313705,197.308182 89.294960,192.366028 89.568283,187.890320 
	C90.043884,180.102524 89.554405,172.274902 90.660965,163.784149 
	C85.502533,167.194763 82.907585,171.896118 79.880333,176.118698 
	C74.042717,184.261322 69.895988,193.416779 65.101944,202.169754 
	C63.070835,205.878174 65.965332,210.275436 65.272224,214.420410 
	C64.981285,216.160294 64.635406,217.711838 62.883469,218.480011 
	C60.946392,219.329330 59.746834,218.143555 58.631207,216.819458 
	C58.132637,216.227722 57.647007,215.625092 56.798542,214.593307 
	C55.895313,216.761826 55.219051,218.417007 54.517872,220.061554 
	C53.424351,222.626297 52.787117,226.194489 49.345612,225.994797 
	C45.455345,225.769073 41.534946,224.849533 39.030655,220.956589 
	C34.881893,214.507309 35.301613,208.486649 40.154510,202.279907 
M103.336311,208.689240 
	C100.931511,208.394424 98.526703,208.099609 95.964973,207.785553 
	C95.256935,211.221405 94.632187,214.016144 95.905434,216.898636 
	C98.327034,216.612808 99.253723,215.010208 100.320648,213.529465 
	C101.470940,211.933029 102.111389,209.912399 104.414566,209.562653 
	C105.589439,215.082764 101.966179,217.842850 97.947060,219.941956 
	C96.037277,220.939392 95.168892,221.884766 95.038200,223.965805 
	C94.432869,233.604294 93.790314,243.241486 93.035492,252.869308 
	C91.734619,269.462128 90.532043,286.066284 88.920166,302.629852 
	C87.793755,314.204865 86.198448,314.732391 100.011383,315.753967 
	C100.673378,315.802917 101.351204,315.669495 102.008881,315.740051 
	C105.285202,316.091522 106.943535,314.496979 107.534134,311.390259 
	C110.236656,297.174042 113.073120,282.982605 115.674545,268.748108 
	C118.459846,253.507538 121.710861,238.390778 126.463615,223.624802 
	C127.701912,219.777618 129.878922,216.791168 133.768921,215.323624 
	C134.135620,215.185287 134.663544,215.474243 134.971924,215.535889 
	C135.909851,217.094482 133.767944,218.037842 134.972610,220.265610 
	C146.521606,216.419846 160.011719,220.958649 170.845093,212.176834 
	C173.193176,214.959930 175.537674,217.707001 170.458557,220.181839 
	C169.501114,220.648361 169.404968,221.798691 169.334656,222.824097 
	C168.640640,232.945953 167.881424,243.063858 167.277313,253.191025 
	C167.137604,255.533142 166.423950,259.039520 170.237061,258.774963 
	C175.696976,258.396118 181.878677,261.752625 186.477295,256.169769 
	C186.843597,255.725067 186.731506,254.886139 186.841248,254.230347 
	C187.665665,249.303848 188.621582,244.395081 189.287369,239.447250 
	C190.749847,228.578674 193.480713,217.842087 192.828079,206.744354 
	C192.453262,200.370667 189.606384,195.546127 184.083817,194.859192 
	C168.030090,192.862305 151.672821,189.260605 136.885834,199.997803 
	C134.505859,201.725967 131.484879,202.563629 128.778625,203.851639 
	C120.938614,207.583054 112.424011,208.042587 103.336311,208.689240 
M93.190239,195.463455 
	C93.379517,198.297897 92.150902,201.931702 96.551064,202.627029 
	C100.806831,203.299561 105.038193,203.793381 109.452797,203.455032 
	C122.507965,202.454453 133.696457,196.734192 144.806122,190.550735 
	C147.072510,189.289307 147.174805,187.700745 146.870621,185.584885 
	C145.370224,175.148422 145.658417,164.643875 145.917221,154.157318 
	C146.012115,150.312469 145.935806,146.322495 147.863449,142.498611 
	C150.449478,143.518372 150.415802,145.560730 150.109344,147.195938 
	C148.607178,155.211227 153.166183,159.522766 159.298981,163.091019 
	C162.762863,165.106415 166.211044,167.119965 170.009476,168.438263 
	C176.301498,170.622025 180.028030,169.210541 183.253494,163.268204 
	C187.658905,155.151978 188.500854,146.244751 189.212936,137.015228 
	C185.155304,135.855606 181.415924,134.786942 177.464722,133.657730 
	C174.514923,140.476425 173.735931,147.765823 169.795700,153.184814 
	C160.387680,140.804260 151.138840,129.045166 135.828934,123.703430 
	C134.164124,128.760300 130.691071,130.118423 126.357635,130.357666 
	C120.915756,130.658112 116.567955,128.542252 113.206543,124.480659 
	C111.718048,122.682106 110.274872,121.862007 108.079506,122.764595 
	C100.836670,125.742386 93.685120,128.754471 87.634644,134.041519 
	C70.719231,148.822586 60.081829,167.649948 52.034973,188.214325 
	C50.577198,191.939789 50.729576,194.951950 55.211437,196.615311 
	C62.206776,199.211502 62.179943,199.196426 64.842300,193.771011 
	C72.001831,179.181244 80.220726,165.305115 92.868073,154.650269 
	C95.416977,152.502914 97.691254,149.743362 101.826012,149.170227 
	C101.884300,152.428238 99.766891,153.942871 98.085083,155.608856 
	C96.367638,157.310120 95.242508,159.058136 95.120102,161.650925 
	C94.602066,172.624390 93.871422,183.587845 93.190239,195.463455 
M222.730209,312.474670 
	C222.730209,302.248596 222.730209,292.022522 222.730209,281.243958 
	C209.353516,284.004852 197.023041,286.551758 184.691513,289.093567 
	C181.797791,289.690033 182.385513,291.985870 182.470825,293.878998 
	C183.002945,305.688507 183.270248,317.491638 182.465271,329.303619 
	C182.347290,331.034607 182.087402,332.978912 183.796234,334.678619 
	C192.588470,332.678528 201.516006,330.758514 210.386734,328.604553 
	C224.851120,325.092285 222.454239,327.921387 222.730209,312.474670 
M179.636124,303.469604 
	C179.639328,300.475769 179.434784,297.463531 179.697464,294.492645 
	C180.038910,290.630859 178.620453,288.799011 174.694199,288.071960 
	C166.694092,286.590607 158.740036,284.807312 150.844681,282.837250 
	C147.206085,281.929291 145.958832,282.926910 146.028122,286.576813 
	C146.195435,295.389648 146.124283,304.206848 146.257645,313.020630 
	C146.514404,329.992218 144.273651,326.048309 159.482147,330.037933 
	C165.667221,331.660492 171.928787,332.991486 179.632141,334.802185 
	C179.632141,323.968842 179.632141,314.209534 179.636124,303.469604 
M115.947395,78.738197 
	C112.991501,81.414062 114.175499,85.267036 113.273773,88.522675 
	C112.250015,92.218826 111.191116,94.285469 106.824371,92.201256 
	C103.509888,90.619286 101.461655,92.525764 101.809914,96.178322 
	C102.215393,100.431038 104.895027,101.827423 108.685738,101.596558 
	C110.413666,101.491318 111.965668,101.273643 113.175423,102.863060 
	C116.192375,106.826874 118.255226,110.971313 117.040413,116.231583 
	C115.617119,122.394615 118.549828,125.904602 125.054893,126.004761 
	C127.513924,126.042633 130.219727,126.286278 130.814926,122.753304 
	C131.358063,119.529312 129.673706,118.384033 126.860901,117.653740 
	C124.057655,116.925926 121.185493,115.878227 121.234146,112.035599 
	C123.807899,111.083900 125.651749,112.569199 127.640625,113.207039 
	C136.664093,116.100861 146.070602,111.704346 148.221039,102.725967 
	C150.125198,94.775780 149.293564,86.658691 147.326141,79.044449 
	C144.536316,77.777290 141.039490,81.112648 139.666321,76.957031 
	C141.267059,74.048866 144.393631,75.763054 146.396347,74.437752 
	C145.621140,72.655434 145.585999,71.193565 136.553284,71.410728 
	C129.887024,71.570992 121.340683,70.750458 115.947395,78.738197 
M93.197914,73.637421 
	C91.642250,75.560852 90.389694,78.124397 91.671249,80.085587 
	C94.231171,84.003113 95.713409,88.235115 96.700798,94.205795 
	C99.151596,89.704903 101.645226,87.328911 105.588196,87.686089 
	C109.074165,88.001884 109.991623,86.041161 109.891968,83.137909 
	C109.840965,81.651886 108.831917,79.515831 109.486351,78.802597 
	C112.966988,75.009232 116.837280,71.573387 120.572670,68.013771 
	C127.445923,72.055374 133.988358,61.850746 140.910095,67.531540 
	C141.000015,67.605339 141.267075,67.562332 141.391022,67.481339 
	C146.063049,64.428879 149.022690,66.276688 150.778198,71.221870 
	C154.409698,65.932060 154.287872,63.960815 150.113281,60.308060 
	C148.615036,58.997089 147.088669,57.925449 146.269669,55.898834 
	C143.477722,48.990215 138.175888,46.909840 131.556198,50.216476 
	C128.842148,51.572197 126.588005,51.285591 123.991882,50.093540 
	C117.080338,46.919983 110.540344,49.627224 105.877625,55.736267 
	C101.578880,61.368439 95.229179,65.475044 93.197914,73.637421 
M212.745560,106.689903 
	C213.424896,106.605484 215.237152,107.948296 214.460907,105.903755 
	C210.111237,94.447533 208.705261,82.655579 210.344467,70.190224 
	C207.320740,72.366814 204.844955,74.319069 202.199677,76.005470 
	C199.539185,77.701553 196.862122,79.562096 193.927139,80.602486 
	C183.983353,84.127327 185.205460,90.816689 187.820755,98.417442 
	C188.855484,101.424683 190.795837,102.885475 194.180389,102.844658 
	C200.396133,102.769707 206.404938,104.082176 212.745560,106.689903 
M230.182358,69.349144 
	C228.608917,66.544861 227.974075,62.069588 223.985550,62.457729 
	C219.634201,62.881172 220.039871,67.512253 219.218430,70.777641 
	C219.137848,71.098030 219.193375,71.461372 219.076889,71.762711 
	C217.567398,75.667763 219.263260,77.288422 223.078964,77.593124 
	C228.201340,78.002190 230.773773,80.958893 231.239777,85.979118 
	C231.793793,91.947296 230.397980,94.186470 224.502167,96.448738 
	C222.954010,97.042793 220.885468,97.365456 221.508850,99.622841 
	C222.485764,103.160400 223.864594,106.630486 226.923019,108.951813 
	C229.008621,110.534752 231.023941,110.059624 232.493286,107.890884 
	C233.623016,106.223381 234.475174,104.361031 234.582077,102.344452 
	C235.165573,91.336128 235.410507,80.355858 230.182358,69.349144 
M180.449280,84.896736 
	C177.680664,85.379349 174.905090,85.825745 172.145798,86.356812 
	C170.179108,86.735344 168.974457,87.952858 168.434738,89.910431 
	C165.954330,98.906761 170.134903,104.239128 179.356567,103.801460 
	C180.018250,103.770050 180.680069,103.724998 181.342072,103.720222 
	C184.310638,103.698784 185.093674,102.451004 184.048126,99.603149 
	C182.506821,95.404961 181.158295,91.123093 182.415497,86.530632 
	C182.674774,85.583496 182.131256,84.975044 180.449280,84.896736 
M178.363373,273.085449 
	C185.601379,274.050140 192.816071,274.160278 200.945038,273.582458 
	C195.915802,266.307465 188.575394,270.992310 183.704941,267.622559 
	C183.182617,266.268036 185.631134,265.510956 183.759094,263.325226 
	C180.265594,263.325226 176.162460,263.395172 172.063110,263.300781 
	C169.309814,263.237366 167.250900,263.442871 167.157211,267.112305 
	C167.071274,270.477570 168.167404,272.036530 171.579178,272.134491 
	C173.553131,272.191223 175.514664,272.681488 178.363373,273.085449 
M50.121849,218.010269 
	C50.047054,219.113785 48.635082,220.239761 50.227615,221.378281 
	C51.073162,218.831146 51.847744,216.303253 52.754433,213.823685 
	C53.585377,211.551239 54.967392,209.549759 57.429802,209.024155 
	C60.432976,208.383087 59.756870,212.025085 61.510052,213.113815 
	C61.413761,203.764740 58.193665,198.823181 50.077969,199.038803 
	C43.005192,199.226730 44.950909,206.595291 43.610661,211.186218 
	C44.730629,211.387665 45.371620,209.450073 46.812702,210.623245 
	C48.117550,213.477341 44.676979,216.004211 45.687733,219.156433 
	C47.566422,216.432800 46.774246,212.405273 50.458618,210.837357 
	C52.060188,213.267151 50.502056,215.258133 50.121849,218.010269 
M105.468872,321.731354 
	C101.822418,318.692596 97.623253,321.041809 93.694748,320.158752 
	C94.102264,326.595428 92.698318,327.832397 86.668167,326.560425 
	C82.546265,325.690948 79.754570,327.118652 77.808960,331.260010 
	C87.029915,333.016876 95.221489,330.785492 103.226013,327.549652 
	C105.335861,326.696716 105.638710,324.566956 105.468872,321.731354 
M181.762863,281.995789 
	C176.176407,281.249115 170.397934,281.460571 165.090302,279.290894 
	C161.048721,277.638763 160.345673,277.442291 155.861725,279.487640 
	C176.497086,285.584290 185.111572,286.085327 197.688065,281.688995 
	C192.321655,282.444275 187.514069,282.181854 181.762863,281.995789 
M214.111115,71.670883 
	C212.222488,83.937309 214.344223,95.508492 220.104935,106.451042 
	C215.564697,96.054489 213.987488,85.151939 214.838699,73.905022 
	C215.355133,67.081406 217.099014,60.760075 224.437332,57.140083 
	C218.330414,57.840584 215.784973,61.422768 214.111115,71.670883 
M182.908600,114.720848 
	C179.367111,113.521111 177.055603,114.681175 176.269073,118.370110 
	C175.412064,122.389664 178.858383,128.750580 182.352310,129.595764 
	C181.814041,126.615379 181.182327,123.754845 179.504044,121.208153 
	C177.722595,118.504883 178.325424,116.855667 181.713287,116.562897 
	C182.554550,116.490189 183.422485,116.410828 182.908600,114.720848 
M221.725510,87.248520 
	C221.312912,85.334343 222.656158,82.933846 220.299026,81.417358 
	C217.611206,84.888153 218.347763,90.519554 221.598999,92.364670 
	C222.618973,90.954880 221.541992,89.472908 221.725510,87.248520 
M184.872803,124.832939 
	C185.392395,126.381310 185.856186,127.951172 186.442657,129.473785 
	C187.868774,133.176331 189.957428,132.695221 192.804306,130.584106 
	C190.250748,129.004608 188.163330,127.774155 186.653275,125.721283 
	C186.288452,125.225327 186.686249,122.878075 184.872803,124.832939 
M206.270233,277.770935 
	C206.217911,278.665039 204.936539,279.320892 205.867523,280.572357 
	C208.294464,280.033051 210.768814,279.483246 214.545471,278.644043 
	C211.057083,277.608704 208.923981,276.942535 206.270233,277.770935 
M193.298401,277.313812 
	C188.955353,277.313812 184.612289,277.313812 180.269241,277.313812 
	C180.270340,277.447601 180.271454,277.581360 180.272552,277.715149 
	C186.720825,277.715149 193.169098,277.715149 199.617371,277.715149 
	C199.619003,277.581879 199.620636,277.448639 199.622284,277.315369 
	C197.816467,277.315369 196.010666,277.315369 193.298401,277.313812 
M163.986954,94.830528 
	C163.986954,93.696022 163.986954,92.561516 163.986954,90.162392 
	C161.790161,95.229248 162.484253,98.591980 165.277405,101.622528 
	C164.860260,99.592522 164.443115,97.562515 163.986954,94.830528 
z"/>
<path fill="#000000" opacity="1.000000" stroke="none" 
	d="
M248.674957,82.484024 
	C252.260788,80.444344 255.475983,78.524582 259.612549,80.369804 
	C261.797882,81.344635 264.086426,79.662285 266.353577,79.321121 
	C268.255920,79.034843 270.183929,78.063034 271.796021,79.999466 
	C268.719971,84.021301 259.432037,86.484367 254.942291,84.411179 
	C253.539413,83.763382 252.391922,84.217415 251.142654,84.625359 
	C249.454315,85.176689 248.072250,85.247589 248.674957,82.484024 
z"/>
<path fill="#000000" opacity="1.000000" stroke="none" 
	d="
M264.354858,103.502975 
	C266.738190,104.536880 269.407928,104.168434 271.074585,107.303719 
	C261.812531,108.821693 254.636475,105.481476 248.055054,100.032890 
	C250.650833,97.356438 255.646225,96.966728 257.747192,99.877571 
	C259.453857,102.242119 261.667175,102.656860 264.354858,103.502975 
z"/>
<path fill="#000000" opacity="1.000000" stroke="none" 
	d="
M248.264435,60.166382 
	C254.096695,58.240440 258.818207,54.751091 264.365234,51.472919 
	C263.153381,57.566048 255.359070,64.457626 250.423645,64.099327 
	C247.801422,63.908962 247.439041,67.339294 244.652466,66.613335 
	C243.411118,63.332943 246.896164,62.461201 248.264435,60.166382 
z"/>
<path fill="#000000" opacity="1.000000" stroke="none" 
	d="
M135.057785,98.418335 
	C138.247467,98.070702 141.463470,97.267998 142.874466,100.561874 
	C144.128067,103.488312 142.424927,106.076027 140.231750,108.038521 
	C137.929718,110.098419 135.242416,110.814636 132.524414,108.818367 
	C129.817719,106.830399 128.100433,104.146194 128.937256,100.677673 
	C129.698990,97.520485 132.365723,98.202728 135.057785,98.418335 
z"/>
<path fill="#000000" opacity="1.000000" stroke="none" 
	d="
M136.083786,85.205368 
	C136.173141,83.850998 136.376358,82.730736 137.732407,83.026634 
	C139.105347,83.326202 143.800354,91.072868 143.397110,92.398666 
	C142.571472,95.113266 140.838776,96.435966 137.210907,95.444534 
	C141.465302,91.367485 136.878235,88.797974 136.083786,85.205368 
z"/>
<path fill="#000000" opacity="1.000000" stroke="none" 
	d="
M125.203598,77.198700 
	C127.069946,77.296875 128.663788,77.282501 128.897049,79.577293 
	C126.352058,81.485085 123.230957,81.344757 120.100426,82.542084 
	C119.880615,78.331345 122.514816,77.954315 125.203598,77.198700 
z"/>
<path fill="#000000" opacity="1.000000" stroke="none" 
	d="
M142.059341,83.291122 
	C142.986176,81.348999 144.204559,80.810310 145.725723,81.889771 
	C147.032516,82.817108 147.464401,84.211746 147.032211,85.773636 
	C146.741211,86.825195 145.924408,87.452240 144.871307,87.392654 
	C142.553085,87.261452 142.071548,85.572289 142.059341,83.291122 
z"/>
<path fill="#000000" opacity="1.000000" stroke="none" 
	d="
M128.396790,85.730713 
	C129.408569,87.829323 129.055725,89.311722 127.236778,90.162941 
	C126.240723,90.629044 125.251221,90.216522 124.692642,89.249290 
	C123.885712,87.852020 123.781761,86.375092 124.898552,85.100166 
	C126.072990,83.759438 127.208168,84.224770 128.396790,85.730713 
z"/>
<path fill="#000000" opacity="1.000000" stroke="none" 
	d="
M104.560684,93.031235 
	C107.612045,93.222549 109.574165,94.227516 109.168190,97.966911 
	C105.990768,97.635948 103.021683,97.710533 104.560684,93.031235 
z"/>
</svg>