<svg version="1.1" id="Layer_1" xmlns="http://www.w3.org/2000/svg" xmlns:xlink="http://www.w3.org/1999/xlink" x="0px" y="0px"
	 width="100%" viewBox="0 0 400 368" enable-background="new 0 0 400 368" xml:space="preserve">
<path fill="#000000" opacity="1.000000" stroke="none" 
	d="
M77.221405,199.373474 
	C73.467514,199.094193 69.975479,199.031158 66.485771,198.904465 
	C65.165169,198.856506 63.485321,199.138428 62.592220,198.455399 
	C57.351559,194.447357 59.306267,188.144241 58.045067,182.866394 
	C57.298515,179.742264 59.529156,178.078766 62.169491,176.858063 
	C66.999100,174.625198 72.268776,175.261139 77.341415,174.025543 
	C72.786064,172.748718 68.133179,173.280258 63.535351,173.576233 
	C57.736645,173.949478 56.084400,172.832352 55.132240,167.156281 
	C54.857174,165.516556 54.832703,163.835968 54.587994,162.189774 
	C53.205605,152.890121 55.512222,150.644516 65.046776,149.768997 
	C82.664604,148.151230 100.353683,149.511063 117.962845,148.039871 
	C120.625923,147.817398 122.870926,147.556107 123.961678,144.667450 
	C128.421463,132.856567 138.259262,127.186241 149.128830,122.659088 
	C152.541809,121.237595 157.073013,120.593468 156.663208,115.393379 
	C156.278900,110.516823 155.250046,105.978394 149.997910,103.490944 
	C145.316162,101.273643 143.150620,97.278259 144.516327,91.964058 
	C145.054184,89.871246 144.391129,88.020615 143.853867,86.104622 
	C142.482178,81.212898 141.304398,75.820984 143.413193,71.372719 
	C147.770309,62.181900 155.065948,55.452908 164.678757,51.673317 
	C168.238220,50.273796 171.937225,51.162659 175.463608,52.281296 
	C181.651123,54.244106 187.869736,54.343243 194.207977,53.099876 
	C200.828110,51.801216 203.999191,53.991688 205.319107,60.444317 
	C205.515472,61.404381 205.734070,62.393372 206.151550,63.269287 
	C208.812241,68.851463 208.400406,72.669975 203.691849,76.455276 
	C200.976501,78.638191 200.216309,81.039505 200.272385,84.199799 
	C200.400009,91.394310 199.045364,98.442352 198.021088,105.523788 
	C197.208267,111.143394 194.398422,115.775764 190.644669,120.206039 
	C193.756134,122.637619 197.437180,122.502052 200.600769,123.748032 
	C206.488937,126.067093 212.544800,127.991287 218.321945,130.551285 
	C222.779755,132.526672 225.824142,131.820404 229.123749,128.129883 
	C236.431656,119.956192 245.698517,114.298737 255.324783,109.218941 
	C259.033844,107.261650 261.148926,107.649963 260.497803,112.446648 
	C266.576019,113.339676 266.944855,113.932899 264.736145,119.573051 
	C261.777771,127.127640 258.428070,134.542496 256.355957,142.164444 
	C258.020355,144.376678 260.005280,143.704269 261.728546,143.706924 
	C270.726959,143.720795 279.730774,143.788757 288.721497,143.494720 
	C292.181122,143.381577 294.077057,144.667496 295.032196,147.783936 
	C295.227264,148.420395 295.425537,149.062027 295.541779,149.715591 
	C297.502380,160.740265 300.164062,166.712418 284.507538,165.279724 
	C283.546234,165.191742 282.555908,165.421509 281.579071,165.503433 
	C281.560516,165.916885 281.541962,166.330338 281.523407,166.743790 
	C284.937531,166.743790 288.372437,166.980774 291.760437,166.683258 
	C295.910736,166.318802 298.120453,168.213974 298.819275,172.019165 
	C299.478638,175.609787 300.050385,179.244339 300.258392,182.882553 
	C300.486633,186.875061 298.461792,189.150528 294.264099,189.132782 
	C291.326538,189.120361 288.388885,189.130371 285.432739,189.811371 
	C288.648010,191.337997 292.031158,190.931686 295.328735,190.734406 
	C299.598267,190.478973 301.968231,192.234787 302.514282,196.486465 
	C302.662415,197.639755 303.006378,198.767746 303.156921,199.920868 
	C304.617188,211.107941 304.540466,211.123901 293.373657,212.624924 
	C291.538513,212.871613 288.476929,212.069382 288.658691,215.578033 
	C288.832489,218.933319 291.396149,218.949188 293.800446,218.652969 
	C307.435242,216.973175 318.784729,224.585968 331.210327,227.803986 
	C333.132996,228.301926 334.903992,229.376694 336.822784,229.900024 
	C342.484161,231.444138 342.346222,235.838120 342.077972,240.296310 
	C341.800690,244.905258 338.533936,245.401245 334.948700,245.261536 
	C331.724365,245.135880 331.017456,246.741638 331.353241,249.653244 
	C333.333130,266.820923 335.155975,284.006805 337.168030,301.170593 
	C337.684631,305.577332 336.397766,308.214722 331.733948,308.892914 
	C325.991882,309.727844 320.454620,306.371582 319.710602,301.046692 
	C318.605591,293.138733 317.895630,285.176086 316.828033,277.262268 
	C316.031586,271.358215 316.216766,265.320374 314.504150,258.745819 
	C309.947937,261.899353 306.099335,265.494232 301.550415,267.504120 
	C293.764618,270.944214 290.506714,276.465820 290.110931,284.738312 
	C289.834259,290.521545 287.184631,292.350677 282.213837,291.814941 
	C276.530731,291.202454 274.265808,288.649384 274.729889,282.995453 
	C275.341858,275.539185 276.154419,268.099548 276.810974,260.646606 
	C276.909546,259.527496 276.628632,258.374939 276.491150,256.890930 
	C272.255737,257.458374 269.425598,255.553055 267.219879,252.305664 
	C266.151459,250.732666 264.539246,249.482285 262.541290,250.498657 
	C260.561401,251.505844 261.530975,253.404312 261.782227,254.974976 
	C263.831696,267.787201 265.798187,280.614288 268.032928,293.394379 
	C268.705994,297.243744 267.984161,300.248566 264.619110,302.537231 
	C268.554382,308.437805 274.520569,311.045624 280.266846,313.948669 
	C283.700378,315.683319 287.085754,317.381866 288.912018,321.141968 
	C291.460388,326.388824 290.094238,329.954559 284.471832,331.388306 
	C279.426849,332.674744 274.212341,332.992126 269.091125,332.093262 
	C261.718201,330.799133 254.423660,329.064545 247.076248,327.616516 
	C242.067993,326.629456 239.489944,323.846863 239.752014,318.602112 
	C239.893250,315.775574 239.809708,312.938446 239.908798,310.108978 
	C240.003845,307.394531 239.969742,304.945892 237.361267,303.024078 
	C235.207275,301.437103 235.264709,298.525177 234.975067,296.113617 
	C233.361725,282.681030 229.457047,269.732208 226.848236,256.513855 
	C226.347733,253.977859 225.110352,253.432205 222.659241,253.589523 
	C192.095856,255.551178 161.529083,257.466370 130.953140,259.218475 
	C127.166588,259.435455 126.020271,260.944000 126.240021,264.459625 
	C127.237030,280.409729 128.594147,296.324860 130.566223,312.185455 
	C130.710068,313.342194 130.926575,314.494415 130.993973,315.655426 
	C131.390366,322.482666 129.782669,324.611908 123.868027,325.172394 
	C117.287773,325.795959 113.338020,322.861847 112.753769,316.634064 
	C111.136925,299.399384 109.534599,282.162292 108.140343,264.908844 
	C107.883537,261.730957 106.571709,260.229126 103.732941,259.182190 
	C100.190582,257.875732 96.817528,256.110138 92.926331,254.340363 
	C91.135910,260.880127 91.184464,267.195648 90.344643,273.367554 
	C89.200310,281.777344 88.288673,290.218811 87.138481,298.627716 
	C86.281006,304.896515 84.921082,306.050415 79.747833,305.489502 
	C73.526733,304.814972 71.123283,302.467346 71.713951,296.611786 
	C73.115753,282.715363 74.753922,268.841370 76.443771,254.976242 
	C76.990990,250.486343 77.396065,246.586517 72.212273,244.093628 
	C68.537865,242.326614 68.565277,238.397934 69.325943,234.803085 
	C70.100548,231.142410 73.172798,231.163788 76.025162,230.955261 
	C77.022095,230.882370 78.021835,230.847000 79.018311,230.769043 
	C80.805435,230.629181 81.747009,229.706268 81.676384,227.856689 
	C81.609932,226.116318 81.421288,224.376709 79.251060,224.098480 
	C77.776840,223.909470 76.259651,224.086853 74.768349,223.993668 
	C71.115158,223.765366 66.473930,225.860031 64.315613,221.521454 
	C61.695427,216.254425 60.994778,210.342224 62.085361,204.471573 
	C62.511776,202.176178 65.012405,202.190155 66.852165,201.454437 
	C70.299507,200.075821 74.339592,202.342926 77.221405,199.373474 
M242.973053,166.972443 
	C242.973053,166.972443 242.787186,166.743423 242.671616,165.952042 
	C241.789062,160.699478 239.849701,154.419937 244.790085,151.039795 
	C250.427872,147.182480 251.813187,141.784958 253.815613,136.239090 
	C255.987610,130.223602 258.335388,124.271584 261.053375,117.115349 
	C249.910095,121.570404 240.857346,127.018013 231.916016,132.701248 
	C228.474976,134.888428 226.589279,137.794739 225.787933,141.867996 
	C223.509048,153.451141 220.780731,164.945786 218.493439,176.527435 
	C217.996353,179.044434 216.706726,181.554733 217.502014,184.824646 
	C225.456055,182.277115 233.337860,179.741074 241.747742,180.566513 
	C242.268539,180.617630 242.998245,180.119537 243.387238,179.667450 
	C245.297852,177.446884 245.114532,169.739990 242.973053,166.972443 
M151.362183,99.536667 
	C159.806259,104.541222 162.797806,111.532494 159.826675,121.155525 
	C158.755219,124.625839 161.763672,125.810463 164.617767,126.955223 
	C165.524261,124.733803 166.245651,122.732620 167.865997,121.553314 
	C167.201126,119.380959 164.321152,118.094742 166.708817,115.252556 
	C170.565857,118.509125 175.490295,117.289673 179.924911,118.439217 
	C184.448227,119.611748 187.510696,117.744514 190.028641,114.000198 
	C194.772736,106.945511 194.337830,98.872704 195.301849,91.611557 
	C193.476868,88.517799 188.450882,91.432381 188.652084,87.915092 
	C188.873154,84.050507 193.162994,87.095573 195.355270,85.831795 
	C195.981766,83.949951 196.615875,82.102112 195.494873,79.936287 
	C189.128845,80.596550 182.883118,80.131996 176.777344,78.122025 
	C174.261200,77.293724 171.660355,76.669952 169.055466,76.179161 
	C166.526215,75.702629 164.742920,76.830345 164.384201,79.446762 
	C163.763290,83.975555 161.368805,87.916420 160.310013,92.273491 
	C159.242157,96.667824 157.591995,96.363045 154.817459,92.759239 
	C153.878510,92.002335 153.240067,90.414642 151.652664,91.284401 
	C150.296783,92.027313 149.476990,93.403885 149.628952,94.888756 
	C149.770966,96.276237 150.502792,97.603363 151.362183,99.536667 
M174.981964,185.004349 
	C174.981964,185.004349 175.021530,185.033340 174.408478,184.675781 
	C172.811920,183.836411 170.377487,184.444763 169.398636,181.770767 
	C173.399231,179.992126 177.261841,182.813248 181.034760,181.593201 
	C180.100784,180.006821 177.636078,180.805023 177.016693,178.526779 
	C178.605362,175.638763 179.133682,171.791595 183.030930,170.178879 
	C180.073456,168.340836 179.108856,170.507187 178.096405,172.464737 
	C175.881714,176.746780 172.902725,179.704102 167.578308,179.369415 
	C164.438095,179.172012 162.667130,180.904663 162.190567,184.054672 
	C161.842499,186.355316 161.464767,188.675247 160.805588,190.899246 
	C159.916443,193.899155 161.216827,194.786789 163.950226,194.956192 
	C168.762726,195.254471 173.660812,195.256592 178.347992,196.227661 
	C184.701294,197.543869 190.068314,195.956818 195.268845,192.504883 
	C193.821991,191.087265 191.443665,191.991196 191.043686,191.306656 
	C190.156723,181.597092 193.609253,173.475937 193.412888,164.375656 
	C199.165710,165.078720 205.062439,165.872375 210.763885,168.400635 
	C209.763779,171.222839 208.746277,173.019592 206.478577,173.331116 
	C211.210800,176.990677 206.350159,180.300018 206.077484,183.495758 
	C205.556366,189.603485 200.105804,188.232849 195.489105,188.351395 
	C200.081711,190.803177 210.285599,189.156952 212.934448,185.835480 
	C213.409042,185.240387 213.599487,184.335342 213.708176,183.544159 
	C215.567444,170.010223 218.554459,156.694519 221.771347,143.442627 
	C222.838745,139.045425 222.174789,136.935959 217.473236,135.595383 
	C202.866776,131.430573 187.866913,129.341431 173.009262,126.498779 
	C170.661148,126.049522 169.175629,126.784248 168.881409,129.438522 
	C168.093674,136.544754 167.221771,143.641998 166.334320,150.736679 
	C166.008667,153.340073 166.922058,155.011475 169.631622,155.254272 
	C176.840637,155.900299 180.787262,162.953751 187.602066,164.365143 
	C187.665604,164.378311 187.609955,164.966934 187.609955,165.405914 
	C185.525024,167.365829 182.845657,165.107086 179.706238,165.833908 
	C182.657104,167.335693 185.236435,166.865036 187.165344,168.538162 
	C186.179550,174.095306 185.191650,179.664261 184.172516,185.409286 
	C180.859695,185.256760 177.898483,185.120407 174.981964,185.004349 
M165.116333,225.720337 
	C173.310196,227.393066 180.959106,225.619171 188.309692,222.024658 
	C195.639008,218.440552 202.834198,214.549576 210.314148,211.315720 
	C217.005203,208.422928 223.278107,204.384094 230.645691,203.195328 
	C234.876373,202.512711 239.464096,202.746063 242.244431,205.938644 
	C252.722717,217.970581 262.206635,230.846664 272.972015,242.653473 
	C273.881500,243.650940 275.311340,244.704651 273.925293,247.177155 
	C267.619293,242.331863 264.141754,235.009598 258.039795,230.117233 
	C257.157471,236.349136 262.040314,239.175385 265.062683,242.854324 
	C273.949524,253.671738 276.155243,253.589767 285.728699,243.022400 
	C286.175903,242.528778 286.568390,241.983856 287.031616,241.506775 
	C289.496277,238.968246 289.802521,236.462845 287.339386,233.631454 
	C284.608612,230.492310 282.129639,227.135574 279.490875,223.914642 
	C270.207458,212.583023 261.151794,201.055038 250.968857,190.492493 
	C246.448975,185.804123 240.921921,184.093857 234.560104,185.377396 
	C230.484726,186.199631 226.373932,186.998291 222.422806,188.258347 
	C204.793701,193.880356 187.739014,201.018173 170.711502,208.212021 
	C167.742493,209.466385 162.062958,221.208389 162.856949,224.441071 
	C162.975250,224.922653 163.846252,225.219360 165.116333,225.720337 
M253.414047,233.173737 
	C252.253647,230.054657 251.269089,226.855515 249.893814,223.834244 
	C247.513824,218.605637 237.955872,213.680679 233.615219,215.956268 
	C226.943161,219.454102 220.666901,223.706985 213.002319,228.384201 
	C218.819336,229.240540 223.776306,228.271606 226.920532,232.930420 
	C218.464951,233.185654 210.028152,229.126724 201.851944,235.279236 
	C206.415359,237.438156 210.957825,236.079208 214.962891,237.440598 
	C220.012802,239.157150 224.011063,237.493835 227.862747,234.300812 
	C232.186920,230.716125 232.860336,230.993057 234.064606,236.508392 
	C237.540848,252.428955 240.690582,268.411011 243.546799,284.458557 
	C244.145096,287.820068 243.402878,291.484131 245.298569,294.552124 
	C245.961441,295.624939 247.561646,296.259277 246.586029,297.844910 
	C246.302368,298.305939 245.469620,298.772156 244.970291,298.696503 
	C243.085022,298.410858 242.964966,296.766632 242.694931,295.296753 
	C240.080551,281.065277 236.628922,267.002930 234.371201,252.690872 
	C233.495193,247.137711 233.220993,241.342560 230.905853,235.696716 
	C229.102264,237.461380 227.725662,238.606140 228.249557,241.100769 
	C232.073914,259.311279 235.758240,277.551178 239.485764,295.782043 
	C240.015823,298.374573 240.824707,300.594391 244.140289,300.603516 
	C249.660736,300.618683 255.079315,299.891113 260.457550,298.727997 
	C263.097595,298.157043 263.822052,296.675476 263.387909,293.990234 
	C260.152161,273.977051 257.963531,253.794403 253.414047,233.173737 
M162.097260,148.635239 
	C162.581482,146.018143 163.140503,143.412155 163.531448,140.781204 
	C164.046204,137.317062 163.903625,134.523987 159.483276,133.215195 
	C156.174744,132.235611 153.197250,129.889236 154.199814,125.350143 
	C142.476624,129.392365 134.272293,134.323532 130.980392,140.618347 
	C122.839111,156.186172 118.507050,172.845490 119.029106,190.470261 
	C119.307373,199.864624 124.720589,203.138489 133.645401,199.847992 
	C141.313431,197.020859 147.155838,191.634247 152.931351,185.380722 
	C149.350281,182.086502 148.062439,177.865082 147.061478,173.455536 
	C139.129684,175.461685 133.132294,180.816635 125.539261,182.867615 
	C125.226967,178.840546 129.047867,178.358734 129.785324,175.795959 
	C128.915344,174.848785 126.726082,175.676636 126.977486,173.436707 
	C128.745346,171.414658 130.988632,171.742233 133.343445,172.206238 
	C138.902557,173.301605 140.774536,171.805511 141.995651,166.388428 
	C142.945786,162.173386 142.402130,157.535202 145.364899,152.972672 
	C149.277069,158.129425 143.929703,163.813766 147.115677,168.261856 
	C149.968674,167.980972 150.843979,165.885925 151.957840,164.060150 
	C153.517029,161.504456 154.789658,158.547226 157.554779,157.174805 
	C160.921478,155.503845 161.843781,152.797089 162.097260,148.635239 
M171.487015,72.235817 
	C174.505142,73.175949 177.517776,74.134247 180.542572,75.052406 
	C186.627136,76.899315 192.704605,76.840744 198.615036,74.488312 
	C203.150208,72.683243 203.820023,70.241295 201.097061,66.408592 
	C200.186234,65.126556 200.745026,63.867935 200.779236,62.570942 
	C200.891251,58.326180 199.076752,56.523102 194.982590,57.465157 
	C187.974335,59.077736 181.198425,58.800282 174.339798,56.608578 
	C171.399536,55.669010 167.908920,54.818947 165.219193,57.059254 
	C162.188583,59.583473 156.707977,58.853512 155.765106,64.196922 
	C155.677567,64.693039 154.381531,64.979950 153.642807,65.356506 
	C147.641617,68.415482 146.245010,72.639786 147.241272,81.550568 
	C147.955643,87.940086 153.067108,86.589920 156.840103,88.171051 
	C157.900452,86.112595 159.438400,84.560989 159.384415,82.253273 
	C157.520935,81.588097 154.705704,82.606018 154.904526,79.374260 
	C155.025345,77.410500 156.736404,75.807724 158.146011,76.307030 
	C161.085724,77.348297 162.009903,75.258911 163.448807,73.868912 
	C165.562576,71.826981 167.946762,71.121170 171.487015,72.235817 
M94.239250,218.661743 
	C106.208099,217.995453 118.154701,217.060989 130.150116,216.698227 
	C140.909592,216.372833 142.930054,218.165787 137.758713,203.724731 
	C133.117294,204.460312 128.285385,206.987213 123.694191,205.072601 
	C118.316422,202.829956 112.945236,203.141785 107.498505,203.398071 
	C98.190964,203.835999 88.894913,204.515778 79.592957,205.076019 
	C70.487709,205.624451 70.640945,205.603836 71.264374,214.508575 
	C71.554916,218.658615 73.399330,219.997543 77.335274,219.651016 
	C82.640747,219.183914 87.971214,219.000778 94.239250,218.661743 
M83.423706,168.716934 
	C93.213783,168.359375 103.003593,167.994370 112.794174,167.651245 
	C114.520721,167.590729 116.208801,167.488434 116.743019,165.421051 
	C117.810127,161.291443 119.722847,157.361465 119.963181,152.180145 
	C100.926918,153.576370 82.096413,152.692490 63.270069,154.620758 
	C62.948139,158.516357 64.280930,161.830551 64.694252,165.262680 
	C65.054070,168.250595 66.743362,169.075333 69.487030,168.963165 
	C73.801659,168.786758 78.123901,168.796906 83.423706,168.716934 
M188.057068,236.669312 
	C191.604965,235.695419 194.923676,234.245590 198.054733,232.277191 
	C209.027115,225.379166 220.020645,218.513687 231.072540,211.744247 
	C233.241898,210.415497 233.884125,208.745804 233.555649,206.383606 
	C229.976562,205.580215 226.894974,206.814087 223.883484,208.249817 
	C214.582870,212.683914 205.317841,217.192810 196.009476,221.610458 
	C187.505157,225.646545 179.341751,230.904434 169.204773,229.295883 
	C163.410202,228.376389 158.548004,225.220261 153.554047,222.554428 
	C150.862228,224.824905 151.250336,226.963745 153.109436,229.190369 
	C156.052917,232.715759 159.523682,235.541718 164.045471,236.662399 
	C171.743851,238.570404 179.500015,238.315109 188.057068,236.669312 
M137.798065,254.051041 
	C158.221161,252.907791 178.646439,251.801559 199.066208,250.601852 
	C206.533463,250.163147 213.987579,249.501099 221.447922,248.944199 
	C223.251373,248.809570 224.826721,248.419785 224.632401,246.082367 
	C224.452682,243.920456 222.956680,243.408096 221.132492,243.375244 
	C220.134903,243.357269 219.130081,243.348877 218.138580,243.442688 
	C196.270889,245.511765 174.325089,246.235367 152.401138,247.367584 
	C138.958771,248.061783 125.539856,249.210281 112.110405,250.154663 
	C110.242401,250.286026 108.301994,250.295303 108.317123,252.981445 
	C108.333801,255.940994 110.431053,256.033997 112.491798,255.898651 
	C120.619545,255.364761 128.741562,254.743622 137.798065,254.051041 
M113.979156,186.585938 
	C114.001732,185.919907 113.989380,185.250549 114.052299,184.588364 
	C114.659210,178.200684 114.660027,178.097992 108.416969,178.267822 
	C98.097603,178.548553 87.784401,179.063309 77.464615,179.318848 
	C67.458580,179.566635 67.767769,179.469986 68.011322,189.171371 
	C68.135246,194.107559 70.212486,194.997482 74.450050,194.702896 
	C86.076912,193.894653 97.714951,193.184479 109.360161,192.737961 
	C113.226471,192.589706 114.357292,190.900452 113.979156,186.585938 
M281.517303,184.844620 
	C285.006256,184.797943 288.495697,184.771774 291.983948,184.694016 
	C293.294037,184.664825 294.994720,184.838181 295.417084,183.309113 
	C296.369904,179.859222 295.884155,176.350662 294.671295,173.057938 
	C293.589813,170.121735 290.790741,171.050690 288.598572,171.051453 
	C276.640350,171.055618 264.736694,172.733475 252.762817,172.280746 
	C250.341446,172.189194 249.320450,173.316589 248.585632,175.559204 
	C246.190903,182.867783 249.644104,185.537018 256.149536,185.724945 
	C264.261627,185.959290 272.402679,185.191025 281.517303,184.844620 
M275.071655,147.737610 
	C269.135345,147.737610 263.199066,147.737610 257.310577,147.737610 
	C257.016663,151.607376 257.046997,154.432449 256.535431,157.155716 
	C255.841232,160.851151 257.321045,161.952957 260.783142,161.801407 
	C270.254730,161.386826 279.732727,161.120575 289.207672,160.781097 
	C290.359406,160.739822 291.886475,160.870377 292.234772,159.570740 
	C293.175140,156.062271 291.974609,152.673019 291.012604,149.360291 
	C290.289398,146.869766 287.939301,147.166550 285.970856,147.204819 
	C282.645020,147.269455 279.321777,147.466812 275.071655,147.737610 
M283.510803,208.718704 
	C285.842194,208.694794 288.174103,208.693848 290.504913,208.642853 
	C298.864899,208.460037 298.964172,208.136017 298.792145,199.738449 
	C298.712128,195.831589 297.061371,194.926178 293.580383,195.113052 
	C288.762054,195.371704 283.917755,195.137390 279.097992,195.380508 
	C274.060364,195.634583 269.038666,196.204269 263.703949,196.662277 
	C271.629150,208.961777 271.629150,208.961777 283.510803,208.718704 
M159.317795,209.743546 
	C164.647003,206.814438 169.976212,203.885330 175.305435,200.956238 
	C165.993240,199.849579 159.463837,206.165451 151.256195,210.114120 
	C153.278397,203.922546 158.728500,202.734634 164.200272,198.601517 
	C155.570358,199.964203 155.291565,195.389999 155.704987,189.848206 
	C151.205872,193.592087 147.274887,196.807190 143.432114,200.124481 
	C142.888779,200.593506 142.370407,201.661850 142.525467,202.281372 
	C144.100388,208.574081 145.817566,214.831177 147.723495,221.952377 
	C151.736252,217.199341 154.612259,213.074509 159.317795,209.743546 
M302.604462,249.134460 
	C301.311127,248.802536 302.115021,247.317017 301.302338,246.721359 
	C300.004761,247.303375 300.459808,249.890915 298.625702,249.470474 
	C296.606171,248.703888 298.505463,246.218445 295.943604,245.666046 
	C292.592560,250.313492 289.732025,255.723572 283.850403,257.832886 
	C286.824860,265.233398 287.687347,265.650757 293.610901,262.491150 
	C303.068146,257.446716 311.154816,250.496704 319.362244,243.725937 
	C320.149048,243.076843 320.758331,242.251160 319.995941,241.156097 
	C312.097931,240.275467 309.265350,241.728043 307.855927,247.955338 
	C304.906952,243.968933 304.936768,248.946060 302.604462,249.134460 
M274.790161,323.850708 
	C278.122894,323.657562 281.588531,324.719757 285.604034,322.742035 
	C281.269714,319.451050 277.753906,314.332275 272.588257,316.500214 
	C266.547302,319.035492 263.532379,316.128998 260.077148,313.182770 
	C260.087311,310.873230 262.796570,310.904449 262.794983,308.526886 
	C256.685303,310.953247 250.576279,310.324036 244.618546,310.055725 
	C243.728424,317.743805 244.110016,318.433716 250.849152,319.721039 
	C258.506805,321.183777 266.205688,322.430908 274.790161,323.850708 
M149.529480,232.190063 
	C148.102463,231.027969 146.382996,231.185242 144.748779,231.270279 
	C130.156326,232.029572 115.547798,232.601486 100.984940,233.748367 
	C94.963089,234.222610 88.789429,233.532455 82.260513,235.338226 
	C86.432571,238.406982 90.540245,239.184006 94.952415,238.717255 
	C105.528969,237.598404 116.136490,237.012939 126.761261,236.572739 
	C133.888626,236.277451 141.003357,235.627014 148.113464,235.015945 
	C149.250076,234.918274 151.807144,235.357193 149.529480,232.190063 
M127.532722,221.286346 
	C119.382645,221.639023 111.231194,221.963791 103.083466,222.364197 
	C101.068626,222.463242 98.404419,221.716202 98.318787,225.164688 
	C98.228012,228.820099 100.725174,229.054855 103.412933,228.913895 
	C112.222969,228.451813 121.033104,227.987244 129.839554,227.462479 
	C134.435959,227.188568 139.024750,226.786606 143.758698,226.431854 
	C143.467545,222.118256 142.048401,219.983780 137.480530,220.879761 
	C134.575073,221.449646 131.502838,221.169342 127.532722,221.286346 
M135.857422,244.199371 
	C144.404800,243.609451 152.952164,243.019547 161.499542,242.429642 
	C158.577499,240.460632 156.580704,237.472672 152.725113,237.917709 
	C136.857666,239.749237 120.906075,240.499847 104.964699,241.369507 
	C103.168800,241.467499 101.395744,241.984375 99.612099,242.306992 
	C102.614723,244.389877 105.171066,246.414368 108.559479,246.171829 
	C117.350471,245.542572 126.142845,244.932602 135.857422,244.199371 
M121.033836,260.798401 
	C117.654594,259.528351 117.481689,261.325623 117.706268,264.011688 
	C118.634712,275.116333 119.395676,286.234802 120.290581,297.342407 
	C120.837997,304.136993 121.511009,310.921570 122.142006,317.709320 
	C122.267593,319.060272 122.405930,320.550140 124.220009,320.570251 
	C126.220436,320.592499 126.622360,319.122467 126.639442,317.490906 
	C126.651634,316.326447 126.653877,315.156219 126.557144,313.997192 
	C125.907021,306.207428 125.586296,298.368408 124.470291,290.644867 
	C123.065224,280.920746 123.646599,271.016602 121.033836,260.798401 
M323.694580,251.874939 
	C325.504150,267.693298 327.294128,283.513947 329.150330,299.326843 
	C329.360260,301.115173 328.737793,303.486542 332.708282,304.345306 
	C331.910217,285.032684 328.699127,266.401947 327.057892,247.179169 
	C324.854706,248.478012 323.961426,249.601837 323.694580,251.874939 
M168.432495,169.375656 
	C167.603943,169.303329 166.772079,169.257248 165.947601,169.152771 
	C164.556885,168.976547 162.581894,169.526001 162.490570,167.319733 
	C162.408524,165.337860 164.116943,165.089905 165.663544,164.942215 
	C166.390396,164.872818 167.120850,164.841034 167.849670,164.792191 
	C164.680832,164.739700 162.154037,163.680481 160.421936,160.178436 
	C156.354599,165.123779 151.900589,169.016174 152.234924,175.553085 
	C152.333450,177.479630 153.185074,179.152023 154.881195,180.116348 
	C156.863419,181.243332 157.975906,179.535065 159.046127,178.379349 
	C160.334564,176.987976 162.026901,176.323090 163.605499,175.422943 
	C163.657501,173.978760 161.683762,172.817505 163.263824,171.146790 
	C165.531540,169.965378 168.277756,171.176239 171.252914,170.225876 
	C170.248230,169.865234 169.660751,169.654358 168.432495,169.375656 
M84.623398,288.162201 
	C85.558098,276.116486 88.030807,264.173676 88.125389,252.071732 
	C87.411491,252.005936 86.697586,251.940155 85.983688,251.874374 
	C83.978180,268.358185 81.972672,284.841980 79.967163,301.325775 
	C80.580826,301.427216 81.194481,301.528656 81.808144,301.630127 
	C84.336411,297.868591 83.282295,293.152252 84.623398,288.162201 
M319.363922,236.709564 
	C321.326569,236.780807 323.665131,236.158752 324.919556,238.107895 
	C327.362183,241.903290 331.021271,240.723511 334.388000,240.809067 
	C336.231781,240.855911 337.689972,240.323486 337.690826,238.044052 
	C337.691772,235.515717 336.107666,234.968536 334.044952,235.093597 
	C321.753967,235.838715 309.464630,236.611191 297.174591,237.372192 
	C294.886871,237.513840 293.849213,238.442566 294.831146,240.981659 
	C303.057831,240.787048 310.356720,236.433517 319.363922,236.709564 
M302.031708,229.543106 
	C298.488098,229.882507 294.944489,230.221909 291.093353,230.590759 
	C293.759827,233.782288 316.916992,233.684341 326.024719,230.756256 
	C322.908936,229.162918 320.063019,227.938690 316.818817,228.183182 
	C312.188538,228.532135 307.566956,228.996719 302.031708,229.543106 
M115.351059,301.212036 
	C115.891808,306.746643 116.432556,312.281219 116.973305,317.815826 
	C117.392189,317.766235 117.811073,317.716644 118.229958,317.667084 
	C116.782349,298.914734 115.334732,280.162415 113.887115,261.410095 
	C113.379585,261.444946 112.872055,261.479797 112.364525,261.514679 
	C113.352837,274.436920 114.341156,287.359192 115.351059,301.212036 
M324.514740,289.914703 
	C323.329132,278.109863 322.143524,266.305023 320.957916,254.500183 
	C320.317871,254.571075 319.677826,254.641968 319.037781,254.712875 
	C320.666290,270.407959 322.294769,286.103058 323.923279,301.798157 
	C324.402313,301.754028 324.881348,301.709900 325.360382,301.665771 
	C325.103882,298.051392 324.847351,294.436981 324.514740,289.914703 
M300.154755,222.289612 
	C295.408997,222.344849 290.617828,222.047348 286.088562,224.669998 
	C293.473694,228.072037 301.035522,224.750778 308.498108,225.216797 
	C306.191132,223.389526 303.731354,222.483170 300.154755,222.289612 
M79.176300,264.674530 
	C77.877571,276.201965 76.578835,287.729401 75.280098,299.256805 
	C75.677025,299.289703 76.073944,299.322601 76.470871,299.355499 
	C78.459213,283.048645 80.447556,266.741791 82.516899,249.770691 
	C81.643288,250.597443 81.267189,250.779114 81.229416,251.014969 
	C80.548576,255.266937 79.908554,259.525452 79.176300,264.674530 
M98.398521,251.977646 
	C99.896584,252.539108 101.189476,253.876053 103.009071,253.231094 
	C103.896675,248.598541 100.353226,246.120972 90.851295,244.794739 
	C89.869507,246.736176 90.219849,248.212097 92.305023,249.177704 
	C94.109253,250.013229 95.915520,250.844360 98.398521,251.977646 
M84.412216,245.259735 
	C86.976105,243.672272 85.632347,242.215286 84.030106,241.241821 
	C81.783714,239.876968 79.344215,238.813522 76.932610,237.744568 
	C75.866730,237.272110 74.583939,237.047440 73.912132,238.415665 
	C73.240784,239.782928 74.184837,240.704437 75.225189,241.219986 
	C78.032417,242.611191 80.917984,243.844299 84.412216,245.259735 
M92.199295,173.289688 
	C92.267731,173.590775 92.334747,174.155167 92.404816,174.155563 
	C99.778618,174.195450 107.152657,174.192947 114.526680,174.192947 
	C114.509911,173.515106 114.493149,172.837280 114.476379,172.159439 
	C107.185829,172.052017 99.895096,171.862610 92.199295,173.289688 
M284.148865,287.050140 
	C284.931061,287.412140 285.454041,287.004059 285.670715,286.347412 
	C287.128387,281.929901 287.197296,277.296753 287.618652,272.728943 
	C287.710724,271.730988 287.316742,270.458557 285.757812,270.402466 
	C284.659546,275.762787 284.010803,281.112030 284.148865,287.050140 
M271.858276,328.145111 
	C275.487762,328.145111 279.117218,328.145111 282.746704,328.145111 
	C271.805573,328.398376 261.316895,325.291016 250.635651,323.921295 
	C257.211151,326.468536 264.066498,327.466095 271.858276,328.145111 
M113.522659,196.509964 
	C107.573494,196.895355 101.624329,197.280762 95.675171,197.666153 
	C95.705460,198.149994 95.735748,198.633835 95.766037,199.117676 
	C101.886368,199.768616 108.015305,198.767197 114.129517,198.449524 
	C115.215065,198.393112 114.978767,197.322159 113.522659,196.509964 
M89.021461,225.514145 
	C89.458939,227.338318 89.015915,229.797302 92.056908,229.750366 
	C93.085060,229.734512 94.169937,229.616760 94.453583,228.434540 
	C94.866058,226.715256 94.503517,224.913788 93.116035,223.920792 
	C91.735939,222.933075 89.968506,222.720474 89.021461,225.514145 
M279.922394,275.201813 
	C279.338440,278.406799 278.888611,281.617432 279.402710,285.238983 
	C281.667664,277.684265 282.497314,269.493591 281.433838,264.163574 
	C280.026703,267.775940 280.298126,271.088440 279.922394,275.201813 
M278.671600,215.315903 
	C279.260925,216.094910 279.816833,216.902267 280.447266,217.646454 
	C281.450867,218.831116 282.656586,219.937881 284.105133,218.469818 
	C285.280701,217.278442 285.140686,215.341873 284.105621,214.456207 
	C282.367035,212.968643 280.108093,211.723618 278.671600,215.315903 
M159.639282,221.269104 
	C160.893585,219.149689 161.237137,216.838501 161.654175,213.867477 
	C158.967972,215.692917 157.143524,217.251755 156.014450,219.303680 
	C156.004532,220.474915 156.697876,221.010971 157.405258,221.380768 
	C157.922211,221.651031 158.611115,221.592422 159.639282,221.269104 
M261.971832,166.245987 
	C256.373901,166.104523 256.373901,166.104523 253.913544,168.744949 
	C258.096100,168.317047 261.688324,167.949539 265.280548,167.582031 
	C265.231049,167.150330 265.181580,166.718613 265.132111,166.286896 
	C264.327820,166.286896 263.523560,166.286896 261.971832,166.245987 
M58.966270,164.435074 
	C59.517460,165.696411 58.610588,167.429123 60.500927,168.631760 
	C61.159012,164.301361 59.922272,160.568512 58.132816,156.878159 
	C58.355629,159.144806 58.578445,161.411469 58.966270,164.435074 
M289.595062,245.522064 
	C287.243195,248.032211 284.122650,249.854797 281.956848,253.872650 
	C285.940094,251.356171 289.318939,249.647263 289.595062,245.522064 
M266.468811,191.874115 
	C267.163422,191.689743 268.203003,192.071838 268.274841,190.568085 
	C265.082153,190.568085 261.934845,190.568085 258.787567,190.568085 
	C260.947693,192.431107 263.393341,191.863602 266.468811,191.874115 
M64.220284,192.602264 
	C63.370945,189.482391 64.265923,186.056961 62.023113,181.783844 
	C62.698101,186.509781 61.085892,190.228317 64.220284,192.602264 
M258.303772,303.810944 
	C254.416687,304.256989 250.529587,304.703064 246.642502,305.149109 
	C250.742661,305.814301 254.883728,306.947845 258.303772,303.810944 
z"/>
<path fill="#000000" opacity="1.000000" stroke="none" 
	d="
M155.050049,92.974808 
	C155.192917,95.808655 156.768890,99.438766 151.349884,99.002228 
	C150.502792,97.603363 149.770966,96.276237 149.628952,94.888756 
	C149.476990,93.403885 150.296783,92.027313 151.652664,91.284401 
	C153.240067,90.414642 153.878510,92.002335 155.050049,92.974808 
z"/>
<path fill="#000000" opacity="1.000000" stroke="none" 
	d="
M141.422745,139.520844 
	C142.210861,141.029861 143.656921,142.034073 142.553802,144.020004 
	C139.810516,142.369751 138.066605,140.173447 137.246140,137.033234 
	C139.702179,136.226410 140.200348,138.189331 141.422745,139.520844 
z"/>
<path fill="#000000" opacity="1.000000" stroke="none" 
	d="
M171.461563,139.422882 
	C171.137421,138.418533 171.436096,137.570908 172.062912,137.557526 
	C178.322556,137.423981 184.121277,139.227158 189.983475,141.296417 
	C188.715942,144.235168 186.670105,142.076096 185.363403,143.026978 
	C192.550079,146.977005 185.762115,151.665085 186.336075,156.173584 
	C181.563049,156.336670 177.392944,154.374817 172.989075,153.842560 
	C171.695496,153.686218 171.462814,152.606445 171.535370,151.183685 
	C171.730377,147.359192 171.573059,143.516754 171.461563,139.422882 
z"/>
<path fill="#000000" opacity="1.000000" stroke="none" 
	d="
M192.499008,149.550629 
	C193.434326,141.815826 193.909729,141.398254 200.796875,142.817505 
	C204.688232,143.619446 208.521698,144.698212 212.397110,145.582748 
	C215.428253,146.274582 216.358368,148.062256 215.839890,151.068848 
	C212.811234,168.631577 213.375351,165.813492 199.539627,162.775696 
	C198.569870,162.562790 197.593521,162.312500 196.608978,162.245773 
	C192.182938,161.945770 190.302536,159.807632 191.387466,155.335114 
	C191.816605,153.566071 192.084351,151.757904 192.499008,149.550629 
M203.987579,146.596252 
	C201.352249,146.794220 198.068802,143.093063 196.206375,147.338928 
	C195.036392,150.006195 194.874847,153.153641 194.487549,156.115311 
	C194.129623,158.852219 196.524094,159.031616 198.176025,159.089462 
	C202.279266,159.233170 206.690643,163.299393 210.201599,159.899658 
	C212.437057,157.735031 212.841049,153.205856 212.130417,149.920715 
	C211.511276,147.058472 207.647644,147.839172 205.253174,146.925034 
	C205.098984,146.866150 204.930450,146.844803 203.987579,146.596252 
z"/>
<path fill="#000000" opacity="1.000000" stroke="none" 
	d="
M208.889709,137.994110 
	C212.035187,139.243729 215.393478,139.153656 217.271942,142.450104 
	C202.285248,139.603989 187.439484,136.416977 172.501358,133.658875 
	C172.661316,132.772095 172.821289,131.885315 172.981262,130.998535 
	C184.982468,132.237488 196.827744,134.505722 208.889709,137.994110 
z"/>
<path fill="#000000" opacity="1.000000" stroke="none" 
	d="
M174.959625,184.994202 
	C177.255096,186.242081 180.268280,185.389786 182.505157,187.569000 
	C182.825058,189.537506 181.079819,190.942108 180.791946,193.485947 
	C175.931152,191.542114 170.594086,193.484604 165.954422,190.291504 
	C168.065445,187.334442 170.675735,189.624466 172.547012,188.567352 
	C171.172836,187.421661 168.378189,188.293243 167.366821,185.494141 
	C169.683762,184.177719 171.957764,184.847656 174.592041,184.980988 
	C175.021530,185.033340 174.981964,185.004349 174.959625,184.994202 
z"/>
<path fill="#000000" opacity="1.000000" stroke="none" 
	d="
M184.163544,100.056656 
	C183.929474,97.607117 183.003021,95.471497 184.473312,93.471268 
	C188.053986,95.905548 190.250214,102.008949 188.151855,104.353455 
	C185.869797,106.903168 183.125885,108.112030 180.402542,105.006355 
	C180.487213,102.148033 185.055908,103.727516 184.163544,100.056656 
z"/>
<path fill="#000000" opacity="1.000000" stroke="none" 
	d="
M177.760620,108.562149 
	C180.510544,110.640381 183.882889,108.436935 186.624908,110.533813 
	C184.410858,114.101547 181.179382,113.369064 178.304321,112.863098 
	C175.885712,112.437462 173.649063,111.247787 173.735901,108.220993 
	C175.224625,106.814171 176.311707,107.823425 177.760620,108.562149 
z"/>
<path fill="#000000" opacity="1.000000" stroke="none" 
	d="
M176.768036,85.824226 
	C178.240662,88.055458 176.959656,88.926537 175.356522,89.026649 
	C172.999512,89.173851 170.560379,89.995071 167.422760,88.482590 
	C169.751984,84.475410 172.921402,84.543900 176.768036,85.824226 
z"/>
<path fill="#000000" opacity="1.000000" stroke="none" 
	d="
M171.121307,95.118507 
	C171.429367,93.258324 171.951065,91.753716 173.821930,91.926620 
	C175.362137,92.068970 175.869934,93.436577 175.961731,94.805809 
	C176.043411,96.024010 175.568436,97.170998 174.364639,97.581886 
	C172.525330,98.209709 171.702240,96.968063 171.121307,95.118507 
z"/>
<path fill="#000000" opacity="1.000000" stroke="none" 
	d="
M191.171661,92.818405 
	C194.205536,93.542786 194.249130,95.267403 192.956085,97.266228 
	C192.358902,98.189369 191.179291,98.414337 190.360229,97.692268 
	C188.404282,95.967911 188.813995,94.302391 191.171661,92.818405 
z"/>
<path fill="#000000" opacity="1.000000" stroke="none" 
	d="
M222.688904,175.038147 
	C221.908859,171.402512 224.247406,168.794754 225.287064,165.977188 
	C225.892761,164.335724 228.332092,163.000778 231.127014,163.780869 
	C228.837494,167.544724 230.909424,171.577087 229.686295,175.830505 
	C228.344345,180.497086 225.811035,179.578400 222.881775,180.825256 
	C222.783478,178.673599 222.706070,176.979355 222.688904,175.038147 
z"/>
<path fill="#000000" opacity="1.000000" stroke="none" 
	d="
M228.450470,157.194641 
	C227.539520,157.491867 226.628555,157.789078 224.729660,158.408600 
	C227.322952,154.243927 224.923279,149.522675 228.079849,146.638016 
	C230.541382,144.388519 233.881134,142.961349 238.014694,142.876999 
	C238.523193,148.582626 233.041245,151.038483 231.134552,155.824066 
	C229.869125,156.536545 229.159805,156.865585 228.450470,157.194641 
z"/>
<path fill="#000000" opacity="1.000000" stroke="none" 
	d="
M236.950043,136.990540 
	C234.077469,138.561981 232.083893,141.005188 228.923889,141.629837 
	C229.529160,136.699585 248.617355,125.276558 255.350525,126.456512 
	C248.811081,130.187073 243.029022,133.485565 236.950043,136.990540 
z"/>
<path fill="#000000" opacity="1.000000" stroke="none" 
	d="
M243.066879,167.086212 
	C241.784393,168.823029 240.748611,170.188248 241.304901,172.837067 
	C242.575333,178.886276 237.319138,178.238159 233.892624,179.531998 
	C231.820557,172.172150 233.798920,169.192078 242.421478,166.778107 
	C242.787186,166.743423 242.973053,166.972443 243.066879,167.086212 
z"/>
<path fill="#000000" opacity="1.000000" stroke="none" 
	d="
M228.307129,157.438110 
	C229.159805,156.865585 229.869125,156.536545 230.888977,155.967514 
	C235.217422,156.231125 236.733032,151.240067 240.617325,151.231323 
	C240.531982,155.298080 229.795715,161.994247 224.771057,161.293182 
	C224.409485,158.685120 227.221558,159.050934 228.307129,157.438110 
z"/>
<path fill="#000000" opacity="1.000000" stroke="none" 
	d="
M248.589859,131.632416 
	C250.181885,130.975769 251.462219,129.702301 253.193954,131.990662 
	C249.520920,135.557617 244.561050,136.611267 240.061310,139.526794 
	C240.591248,136.421341 240.591248,136.421341 248.589859,131.632416 
z"/>
<path fill="#000000" opacity="1.000000" stroke="none" 
	d="
M250.646149,139.423126 
	C248.425415,143.065063 244.432693,143.238602 241.054169,145.653961 
	C241.827286,140.360764 244.251251,138.885910 250.646149,139.423126 
z"/>
</svg>